<svg width="1200" height="1200" viewBox="0 0 1200 1200" fill="none" xmlns="http://www.w3.org/2000/svg">
<path fill-rule="evenodd" clip-rule="evenodd" d="M760 120C914.64 120 1040 245.36 1040 400C1040 554.331 915.14 679.496 760.927 679.996V830.992C760.927 890.635 810.777 938.986 870.42 938.986C930.063 938.986 979.913 890.636 979.913 830.993V770.436C979.913 742.775 1002.34 720.352 1030 720.352C1057.66 720.352 1080.08 742.775 1080.08 770.436V867.961C1080.08 1018.2 962.284 1140 812.041 1140C661.798 1140 540 1018.2 540 867.961V680H520V1080C520 1113.14 493.137 1140 460 1140H160C126.863 1140 100 1113.14 100 1080V180C100 146.863 126.863 120 160 120H760ZM520 420C508.954 420 500 428.954 500 440C500 451.046 508.954 460 520 460C531.046 460 540 451.046 540 440C540 428.954 531.046 420 520 420ZM660 420C648.954 420 640 428.954 640 440C640 451.046 648.954 460 660 460C671.046 460 680 451.046 680 440C680 428.954 671.046 420 660 420Z" fill="#6E5BE9"></path>
</svg>