<svg xmlns="http://www.w3.org/2000/svg" width="1200" height="1200" viewBox="4033.93 355.5 1200 1200" fill="none">
<path d="M4491.11 575.707C4596.05 575.707 4680.93 660.773 4680.93 765.707V868.962C4680.93 873.38 4684.58 877.109 4688.84 875.942C4699.8 872.942 4706.34 863.62 4706.09 851.98C4701.21 808.931 4696.34 765.882 4691.46 722.833C4682.74 669.258 4724.25 616.804 4774.62 611.681C4825.78 603.612 4873.5 649.232 4869.79 696.987C4869.4 702.827 4869.01 708.666 4868.61 714.506C4868.06 722.735 4867.59 732.192 4867.04 740.421C4867.04 740.421 4859.65 737.03 4852.16 737.03C4850.68 737.03 4848.89 737.121 4846.99 737.406V739.037C4846.99 744.525 4843.87 755.5 4831.37 755.5C4818.87 755.5 4815.39 744.525 4815.21 739.037L4815.26 739.02C4814.71 730.848 4814.16 722.677 4813.61 714.506C4813.22 708.666 4812.83 702.827 4812.43 696.987C4810.67 683.065 4795.71 675.882 4786.42 680.188C4773.43 684.372 4768.06 698.979 4772.36 708.104L4804.18 834.123C4819.09 894.456 4782.54 964.287 4720.04 986.309C4707.55 990.914 4694.16 993.689 4680.93 994.496L4681.11 1219.65H4680.93C4679.72 1256.96 4631.49 1286.96 4571.97 1286.96C4546.49 1286.96 4523.05 1281.46 4504.48 1272.24C4480.91 1286.5 4446.45 1295.5 4408.06 1295.5C4337.04 1295.5 4278.93 1264.53 4278.93 1226.56V765.5C4278.93 660.566 4367.01 575.707 4471.94 575.707H4491.11Z" fill="#6E5BE9">
<animate attributeName="d" attributeType="XML"
      values="M4491.11 575.707C4596.05 575.707 4680.93 660.773 4680.93 765.707V868.962C4680.93 873.38 4684.58 877.109 4688.84 875.942C4699.8 872.942 4706.34 863.62 4706.09 851.98C4701.21 808.931 4696.34 765.882 4691.46 722.833C4682.74 669.258 4724.25 616.804 4774.62 611.681C4825.78 603.612 4873.5 649.232 4869.79 696.987C4869.4 702.827 4869.01 708.666 4868.61 714.506C4868.06 722.735 4867.59 732.192 4867.04 740.421C4867.04 740.421 4859.65 737.03 4852.16 737.03C4850.68 737.03 4848.89 737.121 4846.99 737.406V739.037C4846.99 744.525 4843.87 755.5 4831.37 755.5C4818.87 755.5 4815.39 744.525 4815.21 739.037L4815.26 739.02C4814.71 730.848 4814.16 722.677 4813.61 714.506C4813.22 708.666 4812.83 702.827 4812.43 696.987C4810.67 683.065 4795.71 675.882 4786.42 680.188C4773.43 684.372 4768.06 698.979 4772.36 708.104L4804.18 834.123C4819.09 894.456 4782.54 964.287 4720.04 986.309C4707.55 990.914 4694.16 993.689 4680.93 994.496L4681.11 1219.65H4680.93C4679.72 1256.96 4631.49 1286.96 4571.97 1286.96C4546.49 1286.96 4523.05 1281.46 4504.48 1272.24C4480.91 1286.5 4446.45 1295.5 4408.06 1295.5C4337.04 1295.5 4278.93 1264.53 4278.93 1226.56V765.5C4278.93 660.566 4367.01 575.707 4471.94 575.707H4491.11Z;M4491.11 575.71C4596.05 575.71 4706.2 660.77 4693.85 765.71V868.96C4681.18 873.38 4684.58 877.11 4688.84 875.94C4700.1 872.94 4707.74 863.62 4708.86 851.98C4709.04 808.93 4709.24 765.88 4709.43 722.83C4707.01 669.26 4754.7 616.8 4805.67 611.68C4857.78 603.61 4900.13 649.23 4890.8 696.99C4889.72 702.83 4888.64 708.67 4887.56 714.51C4886.04 722.74 4884.46 732.19 4882.94 740.42C4882.94 740.42 4875.95 737.03 4868.46 737.03C4866.98 737.03 4865.18 737.12 4863.24 737.41V739.04C4862.4 744.52 4857.99 755.5 4845.49 755.5C4832.99 755.5 4830.8 744.52 4831.27 739.04L4831.32 739.02C4831.73 730.85 4832.15 722.68 4832.56 714.51C4832.85 708.67 4833.15 702.83 4833.44 696.99C4833.32 683.07 4819.2 675.88 4809.41 680.19C4795.92 684.37 4788.83 698.98 4792.06 708.1L4809.05 834.12C4819.09 894.46 4782.54 964.29 4720.04 986.31C4707.55 990.91 4694.16 993.69 4680.93 994.5L4681.11 1219.65H4680.93C4679.72 1256.96 4631.49 1286.96 4571.97 1286.96C4546.49 1286.96 4523.05 1281.46 4504.48 1272.24C4480.91 1286.5 4446.45 1295.5 4408.06 1295.5C4337.04 1295.5 4278.93 1264.53 4278.93 1226.56V765.5C4278.93 660.57 4367.01 575.71 4471.94 575.71H4491.11Z;M4491.11 575.707C4596.05 575.707 4680.93 660.773 4680.93 765.707V868.962C4680.93 873.38 4684.58 877.109 4688.84 875.942C4699.8 872.942 4706.34 863.62 4706.09 851.98C4701.21 808.931 4696.34 765.882 4691.46 722.833C4682.74 669.258 4724.25 616.804 4774.62 611.681C4825.78 603.612 4873.5 649.232 4869.79 696.987C4869.4 702.827 4869.01 708.666 4868.61 714.506C4868.06 722.735 4867.59 732.192 4867.04 740.421C4867.04 740.421 4859.65 737.03 4852.16 737.03C4850.68 737.03 4848.89 737.121 4846.99 737.406V739.037C4846.99 744.525 4843.87 755.5 4831.37 755.5C4818.87 755.5 4815.39 744.525 4815.21 739.037L4815.26 739.02C4814.71 730.848 4814.16 722.677 4813.61 714.506C4813.22 708.666 4812.83 702.827 4812.43 696.987C4810.67 683.065 4795.71 675.882 4786.42 680.188C4773.43 684.372 4768.06 698.979 4772.36 708.104L4804.18 834.123C4819.09 894.456 4782.54 964.287 4720.04 986.309C4707.55 990.914 4694.16 993.689 4680.93 994.496L4681.11 1219.65H4680.93C4679.72 1256.96 4631.49 1286.96 4571.97 1286.96C4546.49 1286.96 4523.05 1281.46 4504.48 1272.24C4480.91 1286.5 4446.45 1295.5 4408.06 1295.5C4337.04 1295.5 4278.93 1264.53 4278.93 1226.56V765.5C4278.93 660.566 4367.01 575.707 4471.94 575.707H4491.11Z"
      keyTimes="0;0.5;1"
      dur="3s"
      repeatCount="indefinite"
      calcMode="spline"
      keySplines="0.42 0 0.58 1;0.42 0 0.58 1"/>
</path>
<path d="M4379.61 735.5C4379.61 732.834 4378.39 728.195 4374.81 724.235C4371.29 720.332 4365.39 717 4355.88 717C4350.18 717 4345.67 719.395 4342.03 723.646C4338.35 727.948 4335.57 734.155 4333.51 741.686C4329.4 756.743 4328.33 776.573 4328.33 795.5V915.463L4328.35 916.079C4328.61 922.543 4330.51 931.909 4335.38 939.706C4340.35 947.684 4348.4 954 4361.11 954C4373.85 954 4382.89 947.649 4389.08 939.587C4395.29 931.487 4398.55 921.73 4399.63 915.252C4399.77 914.435 4400.54 913.884 4401.36 914.021C4402.18 914.157 4402.73 914.931 4402.59 915.748C4401.44 922.603 4398.03 932.846 4391.46 941.413C4384.86 950.017 4375.01 957 4361.11 957C4347.18 957 4338.25 949.983 4332.83 941.294C4327.45 932.676 4325.5 922.396 4325.33 915.537V795.5C4325.33 776.536 4326.4 756.365 4330.62 740.896C4332.73 733.162 4335.67 726.475 4339.75 721.696C4343.89 716.869 4349.2 714 4355.88 714C4366.17 714 4372.9 717.641 4377.04 722.225C4381.13 726.752 4382.61 732.113 4382.61 735.5C4382.61 736.328 4381.94 737 4381.11 737C4380.28 737 4379.61 736.328 4379.61 735.5Z" fill="#1A1A2E"/>
<path d="M4922.56 1157.75C4922.55 1162.36 4925.75 1166.51 4930.44 1167.53L4931.06 1167.66C4921.42 1177.82 4917.57 1190.45 4916.92 1202.88C4916.23 1216.07 4919.21 1228.3 4922.02 1235.17H4901.45C4897.66 1225.89 4896.08 1218.29 4896.94 1201.83C4897.61 1189.19 4900.96 1175.37 4909.3 1162.94L4911.34 1163.38C4916.02 1164.4 4920.65 1161.95 4922.56 1157.75Z" fill="#A8E6CF"/>
<g>
<animateTransform attributeName="transform" type="rotate"
      values="0 4933.84 1106.87;90 4933.84 1106.87;90 4933.84 1106.87"
      keyTimes="0;0.5;1"
      dur="3s"
      repeatCount="indefinite"
      calcMode="spline"
      keySplines="0.42 0 0.58 1;0 0 0 0"/>
<path d="M4936.8 1046.11C4941.49 1047.13 4944.69 1051.28 4944.68 1055.88C4946.59 1051.69 4951.22 1049.24 4955.9 1050.26L4994.99 1058.75C5000.39 1059.92 5003.81 1065.25 5002.64 1070.64L4994.15 1109.73C4992.98 1115.13 4987.66 1118.55 4982.26 1117.38C4987.66 1118.55 4991.08 1123.88 4989.91 1129.28L4981.42 1168.36C4980.25 1173.76 4974.92 1177.19 4969.53 1176.01L4930.44 1167.53C4925.75 1166.51 4922.55 1162.36 4922.56 1157.75C4920.65 1161.95 4916.02 1164.4 4911.34 1163.38L4872.25 1154.89C4866.85 1153.72 4863.43 1148.39 4864.6 1142.99L4873.09 1103.91C4874.26 1098.51 4879.58 1095.08 4884.98 1096.26C4879.58 1095.08 4876.16 1089.76 4877.33 1084.36L4885.82 1045.27C4886.99 1039.88 4892.32 1036.45 4897.71 1037.62L4936.8 1046.11Z" fill="#6E5BE9"/>
</g>
<path d="M4953.39 1111.11C4951.04 1121.91 4940.39 1128.76 4929.6 1126.41C4918.8 1124.07 4911.95 1113.42 4914.3 1102.62C4916.64 1091.83 4927.29 1084.98 4938.09 1087.32C4948.88 1089.67 4955.73 1100.32 4953.39 1111.11Z" fill="#A8E6CF"/>
<path d="M4565.05 815.696C4565.05 826.633 4558.69 835.5 4550.85 835.5C4543.01 835.5 4536.66 826.633 4536.66 815.696C4536.66 804.758 4543.01 795.892 4550.85 795.892C4558.69 795.892 4565.05 804.758 4565.05 815.696Z" fill="#1A1A2E"/>
<path d="M4645.57 815.696C4645.57 826.633 4639.21 835.5 4631.37 835.5C4623.53 835.5 4617.18 826.633 4617.18 815.696C4617.18 804.758 4623.53 795.892 4631.37 795.892C4639.21 795.892 4645.57 804.758 4645.57 815.696Z" fill="#1A1A2E"/>
<path d="M4677.66 1158.15C4679.04 1157.66 4680.15 1157.19 4681.06 1156.75L4681.06 1160.04C4680.36 1160.34 4679.57 1160.66 4678.67 1160.98C4674.59 1162.44 4668.44 1164.03 4658.72 1165.42C4639.22 1168.21 4622.49 1166 4616.45 1164.51C4615.65 1164.32 4615.16 1163.5 4615.36 1162.7C4615.55 1161.9 4616.37 1161.4 4617.17 1161.6C4622.85 1163 4639.19 1165.19 4658.3 1162.45C4667.88 1161.08 4673.82 1159.53 4677.66 1158.15Z" fill="#1A1A2E"/>
<path d="M4673.59 1117.22C4676.93 1116.43 4679.38 1115.68 4681.03 1115.07L4681.03 1118.25C4679.3 1118.84 4677.05 1119.49 4674.28 1120.14C4668.89 1121.41 4661.42 1122.71 4651.65 1123.63C4632.04 1125.47 4615.43 1122.44 4609.48 1120.66C4608.68 1120.42 4608.23 1119.59 4608.47 1118.79C4608.71 1118 4609.54 1117.55 4610.34 1117.79C4615.94 1119.46 4632.15 1122.44 4651.37 1120.64C4661.02 1119.74 4668.35 1118.45 4673.59 1117.22Z" fill="#1A1A2E"/>
<path d="M4619.16 993.64C4619.31 992.826 4620.09 992.289 4620.91 992.442C4648.39 997.2 4672.37 995.794 4680.93 994.496L4680.93 997.511C4653.62 1000.36 4633.26 997.811 4620.36 995.391C4619.54 995.238 4619.01 994.454 4619.16 993.64Z" fill="#1A1A2E"/>
<path d="M4694.13 882.838C4693.5 879.622 4693.4 876.566 4693.57 874.125C4694.72 873.539 4695.81 872.87 4696.82 872.124C4696.43 874.406 4696.27 878.18 4697.08 882.258C4697.91 886.493 4699.76 890.951 4703.33 894.425C4703.92 895.002 4703.93 895.952 4703.36 896.546C4702.78 897.139 4701.83 897.153 4701.23 896.575C4697.1 892.557 4695.05 887.478 4694.13 882.838Z" fill="#1A1A2E"/>
<path d="M4712.36 882.463C4705.24 878.901 4701.6 873.408 4700.02 869.231C4700.85 868.329 4701.59 867.361 4702.25 866.332C4703.07 869.767 4706.09 875.975 4713.7 879.779C4714.44 880.15 4714.74 881.051 4714.37 881.792C4714 882.533 4713.1 882.833 4712.36 882.463Z" fill="#1A1A2E"/>
<path d="M4770.35 641.302C4765.28 627.343 4756.1 620.483 4750.43 617.944C4751.66 617.426 4752.9 616.935 4754.14 616.474C4760.39 620.02 4768.48 627.36 4773.17 640.276C4773.46 641.055 4773.05 641.916 4772.28 642.199C4771.5 642.482 4770.64 642.08 4770.35 641.302Z" fill="#1A1A2E"/>
<path d="M4789.31 630.805C4784.47 621.128 4777.73 614.996 4773.04 611.858C4773.57 611.795 4774.09 611.734 4774.62 611.681C4775.54 611.536 4776.45 611.41 4777.37 611.3C4782.1 615.027 4787.75 620.979 4791.99 629.463C4792.36 630.204 4792.06 631.105 4791.32 631.476C4790.58 631.846 4789.68 631.545 4789.31 630.805Z" fill="#1A1A2E"/>
<path d="M4538.13 1226.32C4537.5 1243.94 4525.88 1260.53 4507.11 1273.5L4505.84 1272.91L4504.49 1272.24C4524.11 1259.03 4535.16 1242.04 4535.16 1224.82V1158.47C4533.9 1159.19 4532.16 1160.06 4529.6 1160.97C4525.52 1162.44 4519.36 1164.02 4509.65 1165.42C4490.15 1168.21 4473.42 1166 4467.38 1164.51C4466.58 1164.32 4466.08 1163.5 4466.28 1162.7C4466.48 1161.9 4467.29 1161.4 4468.1 1161.6C4473.77 1163 4490.12 1165.19 4509.22 1162.45C4518.81 1161.07 4524.75 1159.53 4528.59 1158.15C4532.12 1156.89 4533.88 1155.76 4535.16 1154.97V1116.97C4533.53 1117.79 4530.24 1118.95 4525.2 1120.14C4519.82 1121.41 4512.34 1122.71 4502.58 1123.63C4482.97 1125.47 4466.36 1122.44 4460.4 1120.66C4459.61 1120.42 4459.16 1119.59 4459.4 1118.79C4459.63 1118 4460.47 1117.55 4461.26 1117.79C4466.86 1119.46 4483.08 1122.44 4502.3 1120.64C4511.95 1119.74 4519.28 1118.45 4524.52 1117.22C4529.79 1115.98 4532.85 1114.81 4534.01 1114.18C4534.37 1113.98 4534.79 1113.95 4535.16 1114.06V1042.35C4535.16 1041.52 4535.83 1040.85 4536.66 1040.85C4537.49 1040.85 4538.16 1041.52 4538.16 1042.35V1226.32H4538.13Z" fill="#1A1A2E"/>
<g>
<animateTransform attributeName="transform" type="rotate"
      values="0 4852.16 737.03;15 4852.16 737.03;0 4852.16 737.03"
      keyTimes="0;0.5;1"
      dur="3s"
      repeatCount="indefinite"
      calcMode="spline"
      keySplines="0.42 0 0.58 1;0.42 0 0.58 1"/>
<g>
<animateTransform attributeName="transform" type="translate"
      values="0 0;16.3 0;0 0"
      keyTimes="0;0.5;1"
      dur="3s"
      repeatCount="indefinite"
      calcMode="spline"
      keySplines="0.42 0 0.58 1;0.42 0 0.58 1"/>
<path d="M4852.16 737.03C4857.4 737.03 4862.59 738.69 4865.24 739.688C4870.05 741.59 4874.56 744.486 4878.45 748.377L4893.02 762.945L4897.98 757.979C4906.97 748.996 4921.53 748.997 4930.51 757.979L4966.62 794.082C4975.6 803.064 4975.6 817.627 4966.62 826.609L4930.17 863.056H4961.22C4963.99 840.233 4976.1 823.056 4990.61 823.056C5007.18 823.056 5020.61 845.442 5020.61 873.056C5020.61 900.67 5007.18 923.055 4990.61 923.056C4976.1 923.056 4964 905.878 4961.22 883.056H4910.17L4900.15 893.077C4891.17 902.059 4876.6 902.059 4867.62 893.077L4831.52 856.974C4822.54 847.992 4822.54 833.428 4831.52 824.446L4836.48 819.482L4821.91 804.914C4807.2 790.204 4806.7 766.668 4820.4 751.354C4822.88 753.776 4826.42 755.5 4831.37 755.5C4843.87 755.5 4846.99 744.525 4846.99 739.037V737.406C4848.89 737.121 4850.68 737.03 4852.16 737.03ZM4990.61 897.853C4987.57 897.853 4985.1 900.322 4985.1 903.368C4985.1 906.414 4987.57 908.883 4990.61 908.883C4993.66 908.883 4996.13 906.414 4996.13 903.368C4996.13 900.322 4993.66 897.853 4990.61 897.853ZM4990.61 877.747C4987.57 877.747 4985.1 880.217 4985.1 883.263C4985.1 886.308 4987.57 888.777 4990.61 888.777C4993.66 888.777 4996.13 886.308 4996.13 883.263C4996.13 880.217 4993.66 877.747 4990.61 877.747ZM4990.61 857.642C4987.57 857.642 4985.1 860.111 4985.1 863.157C4985.1 866.203 4987.57 868.672 4990.61 868.672C4993.66 868.672 4996.13 866.203 4996.13 863.157C4996.13 860.111 4993.66 857.642 4990.61 857.642ZM4990.61 837.536C4987.57 837.536 4985.1 840.006 4985.1 843.052C4985.1 846.097 4987.57 848.566 4990.61 848.566C4993.66 848.566 4996.13 846.097 4996.13 843.052C4996.13 840.006 4993.66 837.536 4990.61 837.536ZM4864.31 762.52C4856.89 755.1 4844.86 755.1 4837.44 762.52L4836.06 763.901C4828.64 771.321 4828.64 783.352 4836.06 790.771L4850.62 805.34L4878.88 777.087L4864.31 762.52Z" fill="#A8E6CF"/>
</g>
</g>
</svg>
