<svg width="1200" height="1200" viewBox="1455.69 1655.5 1200 1200" fill="none" xmlns="http://www.w3.org/2000/svg">


<rect width="1200" height="1200" transform="translate(2745.95 344.5)" fill="#1A1A2E"></rect>
<path d="M3643.99 395.229C3700.78 373.646 3764.37 402.359 3785.96 459.147C3807.54 515.935 3779.07 579.64 3722.28 601.223L3426.73 713.545L3437.63 843.237C3437.92 846.701 3433.07 847.803 3431.84 844.553L3387.68 728.384L3367.07 736.221C3310.28 757.803 3246.68 729.091 3225.1 672.303C3203.51 615.515 3231.99 551.809 3288.78 530.227L3643.99 395.229Z" fill="#A8E6CF"></path>
<path d="M3383.72 741.227C3392.47 740.954 3379.44 763.096 3385.95 766.923C3392.47 770.75 3417.1 734.227 3438.52 753.634C3455.66 769.161 3429.42 793.615 3414.85 812.537L3414.82 812.516C3410.72 818.372 3407.28 824.261 3404.7 829.959C3390.67 862.768 3403.38 880.143 3438.75 898.8C3470.27 915.11 3501.61 938.652 3521.03 978.703C3542.18 1018.41 3532.85 1077.52 3506.93 1110.02C3472.96 1154.92 3424.59 1169.91 3377.98 1166.43L3446.62 1284.66C3449.29 1287.82 3450.49 1289.63 3452.09 1292.4C3453.53 1294.89 3456.65 1299.79 3457.33 1302.58C3470.6 1335.31 3442.31 1380.18 3393.54 1408.81C3341.81 1439.18 3284.3 1437.25 3265.07 1404.51C3264.06 1402.78 3263.17 1401 3262.4 1399.17L3152.32 1202.55C3152.29 1202.61 3145.95 1216.24 3145.95 1244.74C3145.95 1248.16 3146.45 1404.34 3146.45 1404.5C3146.45 1419.72 3139.72 1440.06 3122.41 1456.6C3105.08 1473.15 3077.2 1485.85 3034.95 1485.85C2992.69 1485.85 2964.86 1473.09 2947.82 1456.52C2930.79 1439.95 2925.95 1419.93 2925.95 1404.5V964.501C2925.95 854.044 3015.5 764.501 3125.95 764.501C3236.41 764.501 3325.95 854.044 3325.95 964.501C3326.31 968.632 3326.45 979.826 3326.45 984.491C3326.67 988.662 3327.45 995.558 3329.11 1002.68C3330.77 1009.83 3334.23 1018.82 3337.91 1023.86C3340.95 1027.87 3344.25 1031.6 3347.79 1035.02C3373.14 1060.99 3413.42 1063.21 3424.98 1048.12C3435.02 1035.63 3436.97 1030.06 3433.32 1017.04C3429.21 1004.12 3414.68 987.917 3396.11 976.642C3369.31 960.652 3341.65 937.433 3327.08 901.149C3311.85 864.658 3320.44 821.967 3336.93 794.408C3342.8 784.031 3349.49 774.778 3356.58 766.324C3362.81 757.752 3376.82 741.443 3383.72 741.227Z" fill="#6E5BE9"></path>
<path d="M3198.56 1004.3C3198.56 1015.24 3192.2 1024.11 3184.36 1024.11C3176.52 1024.11 3170.16 1015.24 3170.16 1004.3C3170.16 993.367 3176.52 984.5 3184.36 984.5C3192.2 984.5 3198.56 993.367 3198.56 1004.3Z" fill="#1A1A2E"></path>
<path d="M3280.97 984.696C3280.97 995.633 3274.61 1004.5 3266.77 1004.5C3258.93 1004.5 3252.57 995.633 3252.57 984.696C3252.57 973.758 3258.93 964.892 3266.77 964.892C3274.61 964.892 3280.97 973.758 3280.97 984.696Z" fill="#1A1A2E"></path>
<path d="M2955.82 984.5C2955.82 953.42 2957.21 932.505 2960.95 916.621C2964.72 900.662 2970.87 889.81 2980.27 878.835C2985.18 873.115 2990.95 870.588 2997.06 870.05C3003.1 869.517 3009.41 870.935 3015.44 872.951C3021.45 874.958 3027.44 877.649 3032.65 879.698C3037.99 881.8 3042.46 883.199 3045.87 883.003C3051.35 882.687 3055.58 879.604 3058.7 875.693C3061.83 871.772 3063.73 867.149 3064.5 864.129C3064.7 863.326 3065.52 862.842 3066.32 863.047C3067.13 863.252 3067.61 864.068 3067.41 864.871C3066.55 868.227 3064.49 873.255 3061.05 877.565C3057.6 881.886 3052.65 885.615 3046.04 885.997C3041.89 886.237 3036.83 884.565 3031.55 882.49C3026.14 880.363 3020.41 877.773 3014.49 875.796C3008.6 873.828 3002.76 872.559 2997.32 873.038C2991.95 873.512 2986.92 875.696 2982.55 880.788C2973.42 891.438 2967.52 901.865 2963.87 917.311C2960.21 932.832 2958.82 953.45 2958.82 984.5C2958.82 1015.4 2964.96 1049.53 2978.97 1076.18C2992.97 1102.8 3014.72 1121.8 3046.01 1123H3046.02C3054.43 1123.36 3067.24 1121.82 3078.26 1116.1C3089.21 1110.42 3098.35 1100.63 3099.78 1084.37C3099.85 1083.54 3100.58 1082.93 3101.41 1083.01C3102.23 1083.08 3102.84 1083.81 3102.77 1084.63C3101.23 1102.12 3091.31 1112.71 3079.65 1118.76C3068.05 1124.79 3054.68 1126.37 3045.89 1126C3013.21 1124.74 2990.64 1104.81 2976.32 1077.58C2962.01 1050.37 2955.82 1015.73 2955.82 984.5Z" fill="#1A1A2E"></path>
<path d="M3345.92 1196.78C3346.75 1196.76 3347.43 1197.41 3347.45 1198.24C3347.47 1199.07 3346.82 1199.76 3345.99 1199.78C3316.5 1200.44 3294.37 1217.26 3287.08 1225.5C3286.53 1226.12 3285.58 1226.17 3284.96 1225.62C3284.34 1225.07 3284.28 1224.12 3284.83 1223.5C3292.53 1214.82 3315.39 1197.46 3345.92 1196.78Z" fill="#1A1A2E"></path>
<path d="M3342.9 1228.87C3343.73 1228.81 3344.44 1229.44 3344.5 1230.27C3344.55 1231.1 3343.92 1231.81 3343.09 1231.86C3337.27 1232.23 3331.44 1234.32 3326.48 1236.83C3321.53 1239.34 3317.54 1242.23 3315.42 1244.08C3314.79 1244.63 3313.85 1244.56 3313.3 1243.94C3312.76 1243.32 3312.82 1242.37 3313.45 1241.82C3315.76 1239.8 3319.96 1236.78 3325.13 1234.16C3330.29 1231.54 3336.53 1229.27 3342.9 1228.87Z" fill="#1A1A2E"></path>
<path d="M3140.59 1301.17C3142.84 1300.44 3144.68 1299.75 3146.12 1299.16C3146.12 1300.23 3146.13 1301.3 3146.13 1302.38C3144.81 1302.9 3143.27 1303.45 3141.51 1304.02C3136.25 1305.73 3128.91 1307.65 3119.26 1309.37C3099.86 1312.83 3083.07 1311.19 3076.98 1309.91C3076.17 1309.74 3075.65 1308.94 3075.82 1308.13C3075.99 1307.32 3076.79 1306.8 3077.6 1306.97C3083.32 1308.18 3099.73 1309.81 3118.73 1306.42C3128.27 1304.72 3135.47 1302.83 3140.59 1301.17Z" fill="#1A1A2E"></path>
<path d="M3161.5 1189.07C3159.31 1193.3 3156.58 1198.93 3154.23 1205.97L3152.32 1202.54C3154.64 1195.81 3156.7 1191.81 3158.84 1187.68C3159.22 1186.95 3160.13 1186.66 3160.86 1187.04C3161.6 1187.42 3161.88 1188.33 3161.5 1189.07Z" fill="#1A1A2E"></path>
<path d="M3402.7 1265.75C3418.16 1266.01 3431.91 1269.66 3442.13 1276.91L3446.62 1284.66C3436.88 1274.39 3421.14 1269.08 3402.58 1268.77C3379.09 1268.39 3351.04 1276.06 3324.65 1291.55C3298.27 1307.04 3278.65 1327.42 3268.01 1347.89C3258.57 1366.05 3256.26 1384.13 3262.31 1399L3256.35 1388.36C3254.62 1375.25 3257.89 1360.8 3265.29 1346.56C3276.24 1325.49 3296.32 1304.7 3323.13 1288.96C3349.94 1273.23 3378.55 1265.36 3402.7 1265.75Z" fill="#1A1A2E"></path>
<path d="M3273.37 1136.25C3290.32 1146.36 3323.46 1162.81 3377.98 1166.43L3379.8 1169.56C3323.52 1166.17 3289.32 1149.26 3271.83 1138.83C3271.12 1138.41 3270.89 1137.48 3271.31 1136.77C3271.74 1136.06 3272.66 1135.83 3273.37 1136.25Z" fill="#1A1A2E"></path>
<path d="M3448.22 1040.56C3443.86 1038.19 3437.33 1036.69 3433.1 1036C3433.54 1035.04 3433.89 1034.09 3434.18 1033.14C3438.6 1033.9 3445.09 1035.44 3449.65 1037.93C3450.38 1038.33 3450.65 1039.24 3450.25 1039.96C3449.85 1040.69 3448.94 1040.96 3448.22 1040.56Z" fill="#1A1A2E"></path>
<path d="M3425.23 1081C3415.71 1071.7 3412.06 1061.97 3411.1 1056.22C3412.1 1055.97 3413.07 1055.69 3414 1055.38C3414.74 1060.34 3417.99 1069.73 3427.33 1078.86C3427.92 1079.44 3427.94 1080.39 3427.36 1080.98C3426.78 1081.57 3425.83 1081.58 3425.23 1081Z" fill="#1A1A2E"></path>
<path d="M3433.95 1008.64C3432.83 1009.76 3431.91 1010.79 3431.13 1011.72C3430.67 1010.78 3430.16 1009.84 3429.61 1008.88C3430.27 1008.13 3431 1007.35 3431.81 1006.53C3436.11 1002.2 3442.74 996.803 3452.6 990.788C3453.3 990.357 3454.23 990.58 3454.66 991.287C3455.09 991.994 3454.87 992.917 3454.16 993.349C3444.47 999.264 3438.04 1004.51 3433.95 1008.64Z" fill="#1A1A2E"></path>
<path d="M3142.88 1341.63C3144.26 1341 3145.35 1340.41 3146.25 1339.88L3146.26 1343.31C3145.62 1343.64 3144.91 1343.99 3144.12 1344.36C3140.17 1346.15 3134.17 1348.24 3124.6 1350.44C3105.4 1354.84 3088.55 1354.02 3082.41 1353.04C3081.59 1352.9 3081.03 1352.14 3081.16 1351.32C3081.29 1350.5 3082.06 1349.94 3082.88 1350.07C3088.65 1351 3105.12 1351.82 3123.93 1347.51C3133.37 1345.35 3139.17 1343.31 3142.88 1341.63Z" fill="#1A1A2E"></path>
<rect width="1200" height="1200" transform="translate(1457.98 355.5)" fill="#1A1A2E"></rect>
<path d="M2289.02 965.5C2289.02 871.612 2212.91 795.5 2119.02 795.5H1597.98C1560.01 795.5 1529.23 849.226 1529.23 915.5C1529.23 933.344 1531.46 950.279 1535.46 965.5C1531.46 980.721 1529.23 997.656 1529.23 1015.5C1529.23 1081.26 1559.53 1134.67 1597.09 1135.5C1597.09 1135.5 2437.35 1135.5 2490.95 1135.5C2544.55 1135.5 2586.29 1076.01 2563.91 1029.99L2511.12 919.548C2510.56 918.419 2509.08 914.049 2512.07 908.474C2516.72 899.809 2522.08 887.657 2522.08 887.657C2521.87 888.267 2522.35 887.067 2522.08 887.657C2531.62 863.782 2533.52 857.241 2529.38 855.568C2525.43 853.974 2522.54 857.324 2519.88 860.407C2517.61 863.032 2515.51 865.463 2513.07 864.483C2510.96 863.64 2511.47 859.711 2512.07 855C2512.98 847.815 2514.13 838.811 2506.63 836.168C2497.71 833.026 2489.68 842.948 2487.12 847.492L2475.22 866.507L2475.24 866.516L2461.55 888.05C2461.09 888.826 2460.65 889.611 2460.22 890.408C2451.97 905.645 2450.38 924.652 2456.37 941.519L2476.67 1028.96C2477.3 1031.69 2475.01 1034.21 2472.23 1033.83C2409.56 1025.28 2361.27 1017.78 2300.84 1000.13C2294.75 998.352 2290.26 993.364 2289.02 987.328V965.5Z" fill="#6E5BE9"></path>
<path d="M2048.85 835.199C2052.33 833.969 2055.56 833.443 2058.29 834.034C2068.35 836.209 2073.94 843.842 2076.84 852.155C2079.73 860.451 2080.05 869.669 2079.47 875.645C2079.39 876.47 2078.66 877.073 2077.83 876.993C2077.01 876.913 2076.4 876.179 2076.48 875.354C2077.04 869.683 2076.72 860.924 2074 853.144C2071.3 845.38 2066.32 838.837 2057.66 836.966C2055.72 836.545 2053.11 836.875 2049.85 838.027C2046.63 839.17 2042.91 841.066 2038.83 843.583C2030.68 848.616 2021.23 856.023 2011.52 864.481C1992.12 881.384 1971.85 902.339 1959.11 916.486C1949.97 927.329 1937.83 945.017 1929.09 963.547C1924.71 972.815 1921.21 982.251 1919.35 991.117C1917.48 999.996 1917.29 1008.2 1919.41 1015.06C1922.31 1024.43 1928.02 1030.42 1935.41 1034.1C1942.85 1037.81 1952.07 1039.2 1961.93 1039.2C1981.68 1039.19 2003.44 1033.6 2017.67 1030.6C2018.48 1030.43 2019.27 1030.95 2019.45 1031.76C2019.62 1032.57 2019.1 1033.36 2018.29 1033.54C2004.27 1036.49 1982.08 1042.19 1961.93 1042.2C1951.84 1042.2 1942.1 1040.78 1934.07 1036.78C1925.99 1032.76 1919.7 1026.14 1916.54 1015.94C1914.21 1008.42 1914.49 999.654 1916.41 990.501C1918.34 981.335 1921.94 971.669 1926.37 962.267C1935.24 943.467 1947.54 925.552 1956.83 914.533L1956.85 914.515L1956.86 914.496C1969.65 900.291 1990.02 879.233 2009.55 862.22C2019.31 853.717 2028.9 846.187 2037.26 841.029C2041.44 838.451 2045.35 836.439 2048.85 835.199Z" fill="#1A1A2E"></path>
<path d="M1598.03 897V894L1879.48 894V897L1598.03 897Z" fill="#1A1A2E"></path>
<path d="M1764.78 1077.29C1762.79 1083.18 1759.18 1099.66 1760.32 1119.33C1760.73 1126.35 1761.39 1131.57 1762.14 1135.5H1765.19C1764.43 1131.68 1763.74 1126.43 1763.31 1119.15C1762.19 1099.89 1765.75 1083.78 1767.62 1078.25C1767.89 1077.46 1767.46 1076.61 1766.68 1076.34C1765.9 1076.08 1765.04 1076.5 1764.78 1077.29Z" fill="#1A1A2E"></path>
<path d="M1792.18 1077.29C1790.19 1083.18 1786.58 1099.66 1787.72 1119.33C1788.13 1126.35 1788.79 1131.57 1789.54 1135.5H1792.6C1791.83 1131.68 1791.14 1126.43 1790.71 1119.15C1789.6 1099.89 1793.15 1083.78 1795.02 1078.25C1795.29 1077.46 1794.87 1076.61 1794.08 1076.34C1793.3 1076.08 1792.45 1076.5 1792.18 1077.29Z" fill="#1A1A2E"></path>
<path d="M2177.98 1014C2178.8 1014 2179.48 1014.67 2179.48 1015.5C2179.48 1016.33 2178.8 1017 2177.98 1017H2172.14C2171.66 1027.33 2165.5 1035.5 2157.98 1035.5C2150.45 1035.5 2144.29 1027.33 2143.81 1017H2137.98C2137.15 1017 2136.48 1016.33 2136.48 1015.5C2136.48 1014.67 2137.15 1014 2137.98 1014H2177.98Z" fill="#1A1A2E"></path>
<path d="M2347.61 1052.36C2348.37 1052.69 2349.25 1052.35 2349.58 1051.59C2357.13 1034.25 2356.47 1020.72 2354.56 1014L2351.15 1013.23C2353.08 1018.11 2354.94 1031.77 2346.83 1050.39C2346.5 1051.15 2346.85 1052.03 2347.61 1052.36Z" fill="#1A1A2E"></path>
<path d="M2369.43 1057.01C2370.19 1057.34 2371.08 1056.99 2371.41 1056.23C2378.96 1038.9 2378.29 1025.32 2376.39 1018.6L2372.98 1017.92C2374.91 1022.8 2376.77 1036.42 2368.66 1055.03C2368.33 1055.79 2368.67 1056.68 2369.43 1057.01Z" fill="#1A1A2E"></path>
<path d="M2389.31 1060.68C2390.07 1061.01 2390.96 1060.66 2391.29 1059.9C2398.84 1042.57 2398.17 1029.04 2396.27 1022.32L2392.88 1021.71C2394.82 1026.59 2396.65 1040.09 2388.54 1058.71C2388.21 1059.47 2388.55 1060.35 2389.31 1060.68Z" fill="#1A1A2E"></path>
<path d="M2484.22 920.631C2470.56 915.299 2459.69 915.062 2452.9 916.142C2452.96 915.115 2453.06 914.09 2453.17 913.07C2453.54 909.849 2454.14 906.665 2454.99 903.555C2455.27 902.517 2455.58 901.486 2455.91 900.466C2463.2 899.942 2473.2 900.909 2485.07 905.546C2485.84 905.848 2486.23 906.718 2485.92 907.489C2485.62 908.261 2484.75 908.641 2483.98 908.34C2471.79 903.58 2461.82 902.882 2454.99 903.555C2454.14 906.665 2453.54 909.849 2453.17 913.07C2460.6 912.031 2471.73 912.534 2485.31 917.837C2486.08 918.139 2486.46 919.009 2486.16 919.78C2485.86 920.552 2484.99 920.932 2484.22 920.631Z" fill="#1A1A2E"></path>
<path d="M2469.95 1048.94C2471.62 1044.47 2472.19 1038.13 2472.3 1033.83C2474.19 1033.84 2477.66 1032.68 2476.44 1027.95C2480.5 1027.86 2487.77 1029.13 2493.7 1031.22C2494.48 1031.5 2494.88 1032.36 2494.61 1033.14C2494.33 1033.92 2493.47 1034.33 2492.69 1034.05C2487.23 1032.12 2480.66 1030.97 2476.98 1030.95C2478.43 1032.05 2480.08 1033.49 2481.73 1035.03C2484.4 1037.54 2487.19 1040.46 2489.24 1043C2489.76 1043.64 2489.67 1044.59 2489.02 1045.11C2488.38 1045.63 2487.43 1045.53 2486.91 1044.89C2484.96 1042.48 2482.28 1039.66 2479.67 1037.22C2478.09 1035.73 2476.58 1034.43 2475.32 1033.45C2475.22 1037.93 2474.65 1044.93 2472.76 1049.99C2472.47 1050.77 2471.6 1051.16 2470.83 1050.87C2470.05 1050.58 2469.66 1049.72 2469.95 1048.94Z" fill="#1A1A2E"></path>
<path d="M1616.17 1135.5H1608.09C1621.79 1131.15 1634.18 1119.74 1643.85 1103.13C1656.37 1081.63 1664.17 1051.68 1664.17 1018.09C1664.17 984.494 1656.36 954.157 1643.82 932.271C1631.26 910.342 1614.14 897.179 1595.55 897.179C1582.23 897.179 1569.9 904.481 1559.42 917.04C1549.33 929.134 1541.06 945.984 1535.44 965.413C1534.94 963.494 1534.46 961.549 1534.01 959.577C1539.65 941.94 1547.52 926.517 1557.07 915.078C1567.91 902.096 1581.02 894.118 1595.55 894.118C1615.7 894.118 1633.65 908.364 1646.48 930.749C1659.33 953.177 1667.23 984.059 1667.23 1018.09C1667.23 1052.11 1659.34 1082.62 1646.5 1104.67C1638.25 1118.83 1627.88 1129.61 1616.17 1135.5Z" fill="#1A1A2E"></path>
<path d="M1641.61 823.445C1630.45 807.213 1616.44 797.184 1601.28 795.5H1613.78C1625.25 800.105 1635.61 809.253 1644.16 821.688C1656.78 840.049 1665.6 865.742 1668.44 895.249L1665.35 895.546C1662.55 866.441 1653.87 841.282 1641.61 823.445Z" fill="#1A1A2E"></path>
<rect width="1200" height="1200" transform="translate(4033.93 355.5)" fill="#1A1A2E"></rect>
<path d="M4491.11 575.707C4596.05 575.707 4680.93 660.773 4680.93 765.707V868.962C4680.93 873.38 4684.58 877.109 4688.84 875.942C4699.8 872.942 4706.34 863.62 4706.09 851.98C4701.21 808.931 4696.34 765.882 4691.46 722.833C4682.74 669.258 4724.25 616.804 4774.62 611.681C4825.78 603.612 4873.5 649.232 4869.79 696.987C4869.4 702.827 4869.01 708.666 4868.61 714.506C4868.06 722.735 4867.59 732.192 4867.04 740.421C4867.04 740.421 4859.65 737.03 4852.16 737.03C4850.68 737.03 4848.89 737.121 4846.99 737.406V739.037C4846.99 744.525 4843.87 755.5 4831.37 755.5C4818.87 755.5 4815.39 744.525 4815.21 739.037L4815.26 739.02C4814.71 730.848 4814.16 722.677 4813.61 714.506C4813.22 708.666 4812.83 702.827 4812.43 696.987C4810.67 683.065 4795.71 675.882 4786.42 680.188C4773.43 684.372 4768.06 698.979 4772.36 708.104L4804.18 834.123C4819.09 894.456 4782.54 964.287 4720.04 986.309C4707.55 990.914 4694.16 993.689 4680.93 994.496L4681.11 1219.65H4680.93C4679.72 1256.96 4631.49 1286.96 4571.97 1286.96C4546.49 1286.96 4523.05 1281.46 4504.48 1272.24C4480.91 1286.5 4446.45 1295.5 4408.06 1295.5C4337.04 1295.5 4278.93 1264.53 4278.93 1226.56V765.5C4278.93 660.566 4367.01 575.707 4471.94 575.707H4491.11Z" fill="#6E5BE9"></path>
<path d="M4379.61 735.5C4379.61 732.834 4378.39 728.195 4374.81 724.235C4371.29 720.332 4365.39 717 4355.88 717C4350.18 717 4345.67 719.395 4342.03 723.646C4338.35 727.948 4335.57 734.155 4333.51 741.686C4329.4 756.743 4328.33 776.573 4328.33 795.5V915.463L4328.35 916.079C4328.61 922.543 4330.51 931.909 4335.38 939.706C4340.35 947.684 4348.4 954 4361.11 954C4373.85 954 4382.89 947.649 4389.08 939.587C4395.29 931.487 4398.55 921.73 4399.63 915.252C4399.77 914.435 4400.54 913.884 4401.36 914.021C4402.18 914.157 4402.73 914.931 4402.59 915.748C4401.44 922.603 4398.03 932.846 4391.46 941.413C4384.86 950.017 4375.01 957 4361.11 957C4347.18 957 4338.25 949.983 4332.83 941.294C4327.45 932.676 4325.5 922.396 4325.33 915.537V795.5C4325.33 776.536 4326.4 756.365 4330.62 740.896C4332.73 733.162 4335.67 726.475 4339.75 721.696C4343.89 716.869 4349.2 714 4355.88 714C4366.17 714 4372.9 717.641 4377.04 722.225C4381.13 726.752 4382.61 732.113 4382.61 735.5C4382.61 736.328 4381.94 737 4381.11 737C4380.28 737 4379.61 736.328 4379.61 735.5Z" fill="#1A1A2E"></path>
<path d="M4922.56 1157.75C4922.55 1162.36 4925.75 1166.51 4930.44 1167.53L4931.06 1167.66C4921.42 1177.82 4917.57 1190.45 4916.92 1202.88C4916.23 1216.07 4919.21 1228.3 4922.02 1235.17H4901.45C4897.66 1225.89 4896.08 1218.29 4896.94 1201.83C4897.61 1189.19 4900.96 1175.37 4909.3 1162.94L4911.34 1163.38C4916.02 1164.4 4920.65 1161.95 4922.56 1157.75Z" fill="#A8E6CF"></path>
<path d="M4936.8 1046.11C4941.49 1047.13 4944.69 1051.28 4944.68 1055.88C4946.59 1051.69 4951.22 1049.24 4955.9 1050.26L4994.99 1058.75C5000.39 1059.92 5003.81 1065.25 5002.64 1070.64L4994.15 1109.73C4992.98 1115.13 4987.66 1118.55 4982.26 1117.38C4987.66 1118.55 4991.08 1123.88 4989.91 1129.28L4981.42 1168.36C4980.25 1173.76 4974.92 1177.19 4969.53 1176.01L4930.44 1167.53C4925.75 1166.51 4922.55 1162.36 4922.56 1157.75C4920.65 1161.95 4916.02 1164.4 4911.34 1163.38L4872.25 1154.89C4866.85 1153.72 4863.43 1148.39 4864.6 1142.99L4873.09 1103.91C4874.26 1098.51 4879.58 1095.08 4884.98 1096.26C4879.58 1095.08 4876.16 1089.76 4877.33 1084.36L4885.82 1045.27C4886.99 1039.88 4892.32 1036.45 4897.71 1037.62L4936.8 1046.11Z" fill="#6E5BE9"></path>
<path d="M4953.39 1111.11C4951.04 1121.91 4940.39 1128.76 4929.6 1126.41C4918.8 1124.07 4911.95 1113.42 4914.3 1102.62C4916.64 1091.83 4927.29 1084.98 4938.09 1087.32C4948.88 1089.67 4955.73 1100.32 4953.39 1111.11Z" fill="#A8E6CF"></path>
<path d="M4565.05 815.696C4565.05 826.633 4558.69 835.5 4550.85 835.5C4543.01 835.5 4536.66 826.633 4536.66 815.696C4536.66 804.758 4543.01 795.892 4550.85 795.892C4558.69 795.892 4565.05 804.758 4565.05 815.696Z" fill="#1A1A2E"></path>
<path d="M4645.57 815.696C4645.57 826.633 4639.21 835.5 4631.37 835.5C4623.53 835.5 4617.18 826.633 4617.18 815.696C4617.18 804.758 4623.53 795.892 4631.37 795.892C4639.21 795.892 4645.57 804.758 4645.57 815.696Z" fill="#1A1A2E"></path>
<path d="M4677.66 1158.15C4679.04 1157.66 4680.15 1157.19 4681.06 1156.75L4681.06 1160.04C4680.36 1160.34 4679.57 1160.66 4678.67 1160.98C4674.59 1162.44 4668.44 1164.03 4658.72 1165.42C4639.22 1168.21 4622.49 1166 4616.45 1164.51C4615.65 1164.32 4615.16 1163.5 4615.36 1162.7C4615.55 1161.9 4616.37 1161.4 4617.17 1161.6C4622.85 1163 4639.19 1165.19 4658.3 1162.45C4667.88 1161.08 4673.82 1159.53 4677.66 1158.15Z" fill="#1A1A2E"></path>
<path d="M4673.59 1117.22C4676.93 1116.43 4679.38 1115.68 4681.03 1115.07L4681.03 1118.25C4679.3 1118.84 4677.05 1119.49 4674.28 1120.14C4668.89 1121.41 4661.42 1122.71 4651.65 1123.63C4632.04 1125.47 4615.43 1122.44 4609.48 1120.66C4608.68 1120.42 4608.23 1119.59 4608.47 1118.79C4608.71 1118 4609.54 1117.55 4610.34 1117.79C4615.94 1119.46 4632.15 1122.44 4651.37 1120.64C4661.02 1119.74 4668.35 1118.45 4673.59 1117.22Z" fill="#1A1A2E"></path>
<path d="M4619.16 993.64C4619.31 992.826 4620.09 992.289 4620.91 992.442C4648.39 997.2 4672.37 995.794 4680.93 994.496L4680.93 997.511C4653.62 1000.36 4633.26 997.811 4620.36 995.391C4619.54 995.238 4619.01 994.454 4619.16 993.64Z" fill="#1A1A2E"></path>
<path d="M4694.13 882.838C4693.5 879.622 4693.4 876.566 4693.57 874.125C4694.72 873.539 4695.81 872.87 4696.82 872.124C4696.43 874.406 4696.27 878.18 4697.08 882.258C4697.91 886.493 4699.76 890.951 4703.33 894.425C4703.92 895.002 4703.93 895.952 4703.36 896.546C4702.78 897.139 4701.83 897.153 4701.23 896.575C4697.1 892.557 4695.05 887.478 4694.13 882.838Z" fill="#1A1A2E"></path>
<path d="M4712.36 882.463C4705.24 878.901 4701.6 873.408 4700.02 869.231C4700.85 868.329 4701.59 867.361 4702.25 866.332C4703.07 869.767 4706.09 875.975 4713.7 879.779C4714.44 880.15 4714.74 881.051 4714.37 881.792C4714 882.533 4713.1 882.833 4712.36 882.463Z" fill="#1A1A2E"></path>
<path d="M4770.35 641.302C4765.28 627.343 4756.1 620.483 4750.43 617.944C4751.66 617.426 4752.9 616.935 4754.14 616.474C4760.39 620.02 4768.48 627.36 4773.17 640.276C4773.46 641.055 4773.05 641.916 4772.28 642.199C4771.5 642.482 4770.64 642.08 4770.35 641.302Z" fill="#1A1A2E"></path>
<path d="M4789.31 630.805C4784.47 621.128 4777.73 614.996 4773.04 611.858C4773.57 611.795 4774.09 611.734 4774.62 611.681C4775.54 611.536 4776.45 611.41 4777.37 611.3C4782.1 615.027 4787.75 620.979 4791.99 629.463C4792.36 630.204 4792.06 631.105 4791.32 631.476C4790.58 631.846 4789.68 631.545 4789.31 630.805Z" fill="#1A1A2E"></path>
<path d="M4538.13 1226.32C4537.5 1243.94 4525.88 1260.53 4507.11 1273.5L4505.84 1272.91L4504.49 1272.24C4524.11 1259.03 4535.16 1242.04 4535.16 1224.82V1158.47C4533.9 1159.19 4532.16 1160.06 4529.6 1160.97C4525.52 1162.44 4519.36 1164.02 4509.65 1165.42C4490.15 1168.21 4473.42 1166 4467.38 1164.51C4466.58 1164.32 4466.08 1163.5 4466.28 1162.7C4466.48 1161.9 4467.29 1161.4 4468.1 1161.6C4473.77 1163 4490.12 1165.19 4509.22 1162.45C4518.81 1161.07 4524.75 1159.53 4528.59 1158.15C4532.12 1156.89 4533.88 1155.76 4535.16 1154.97V1116.97C4533.53 1117.79 4530.24 1118.95 4525.2 1120.14C4519.82 1121.41 4512.34 1122.71 4502.58 1123.63C4482.97 1125.47 4466.36 1122.44 4460.4 1120.66C4459.61 1120.42 4459.16 1119.59 4459.4 1118.79C4459.63 1118 4460.47 1117.55 4461.26 1117.79C4466.86 1119.46 4483.08 1122.44 4502.3 1120.64C4511.95 1119.74 4519.28 1118.45 4524.52 1117.22C4529.79 1115.98 4532.85 1114.81 4534.01 1114.18C4534.37 1113.98 4534.79 1113.95 4535.16 1114.06V1042.35C4535.16 1041.52 4535.83 1040.85 4536.66 1040.85C4537.49 1040.85 4538.16 1041.52 4538.16 1042.35V1226.32H4538.13Z" fill="#1A1A2E"></path>
<path d="M4852.16 737.03C4857.4 737.03 4862.59 738.69 4865.24 739.688C4870.05 741.59 4874.56 744.486 4878.45 748.377L4893.02 762.945L4897.98 757.979C4906.97 748.996 4921.53 748.997 4930.51 757.979L4966.62 794.082C4975.6 803.064 4975.6 817.627 4966.62 826.609L4930.17 863.056H4961.22C4963.99 840.233 4976.1 823.056 4990.61 823.056C5007.18 823.056 5020.61 845.442 5020.61 873.056C5020.61 900.67 5007.18 923.055 4990.61 923.056C4976.1 923.056 4964 905.878 4961.22 883.056H4910.17L4900.15 893.077C4891.17 902.059 4876.6 902.059 4867.62 893.077L4831.52 856.974C4822.54 847.992 4822.54 833.428 4831.52 824.446L4836.48 819.482L4821.91 804.914C4807.2 790.204 4806.7 766.668 4820.4 751.354C4822.88 753.776 4826.42 755.5 4831.37 755.5C4843.87 755.5 4846.99 744.525 4846.99 739.037V737.406C4848.89 737.121 4850.68 737.03 4852.16 737.03ZM4990.61 897.853C4987.57 897.853 4985.1 900.322 4985.1 903.368C4985.1 906.414 4987.57 908.883 4990.61 908.883C4993.66 908.883 4996.13 906.414 4996.13 903.368C4996.13 900.322 4993.66 897.853 4990.61 897.853ZM4990.61 877.747C4987.57 877.747 4985.1 880.217 4985.1 883.263C4985.1 886.308 4987.57 888.777 4990.61 888.777C4993.66 888.777 4996.13 886.308 4996.13 883.263C4996.13 880.217 4993.66 877.747 4990.61 877.747ZM4990.61 857.642C4987.57 857.642 4985.1 860.111 4985.1 863.157C4985.1 866.203 4987.57 868.672 4990.61 868.672C4993.66 868.672 4996.13 866.203 4996.13 863.157C4996.13 860.111 4993.66 857.642 4990.61 857.642ZM4990.61 837.536C4987.57 837.536 4985.1 840.006 4985.1 843.052C4985.1 846.097 4987.57 848.566 4990.61 848.566C4993.66 848.566 4996.13 846.097 4996.13 843.052C4996.13 840.006 4993.66 837.536 4990.61 837.536ZM4864.31 762.52C4856.89 755.1 4844.86 755.1 4837.44 762.52L4836.06 763.901C4828.64 771.321 4828.64 783.352 4836.06 790.771L4850.62 805.34L4878.88 777.087L4864.31 762.52Z" fill="#A8E6CF"></path>
<rect width="1200" height="1200" transform="translate(170 355.5)" fill="#1A1A2E"></rect>
<path d="M935.852 705.347C943.342 704.343 940.224 660.401 969.053 662.48C991.843 664.125 986.661 698.737 986.718 722.6C987.082 727.705 987.448 732.809 987.812 737.914C988.766 751.277 989.72 764.641 990.674 778.004C991.832 801.614 985.974 825.862 973.686 846.818C970.707 852.22 967.728 857.622 964.749 863.024C960.502 872.566 961.032 883.195 965.099 891.231C969.57 903.563 974.042 915.895 978.514 928.226C982.37 939.841 985.121 953.429 984.801 968.41C984.504 986.498 984.611 1003.41 977.111 1028.74C973.899 1037.7 970.909 1048.36 957.542 1063.27L1071.53 1177.26L1093.47 1200.01C1095.96 1203.18 1097.79 1206.84 1099 1210.9C1111.91 1240.56 1096.64 1286.67 1059.72 1322.35C990.926 1391.15 932.301 1348.18 932.301 1348.18L760.451 1176.35C751.996 1179.16 743.192 1181.21 734.12 1182.41L791.357 1361.24C792.76 1365.42 796.592 1376.39 797.829 1381.35C807.026 1418.19 765.792 1459.94 707.593 1474.47C654.831 1487.65 600.241 1465.82 584.538 1435.71L484.975 1158.11C468.104 1103.57 466.295 1092.08 463.148 1074.56C459.422 1053.81 458.547 1025.35 458.547 1016.63V953.425C458.547 842.968 548.09 753.425 658.547 753.425C765.675 753.425 853.13 837.652 858.304 943.498C858.464 945.952 858.641 948.394 858.925 950.693C858.935 950.771 860.145 960.282 865.046 963.529C866.12 964.122 866.805 964.094 867.863 964.122C875.763 964.329 873.933 951.015 871.859 940.58C870.36 933.38 868.86 926.178 867.36 918.978C858.485 882.204 866.563 842.657 887.866 813.178C891.582 808.254 895.299 803.33 899.015 798.406C903.876 792.993 907.304 785.848 908.417 778.004C909.371 764.641 910.324 751.277 911.278 737.914C911.635 732.915 911.992 727.915 912.349 722.916C911.979 712.3 912.963 690.907 918.257 686.488C924.976 680.882 928.361 706.352 935.852 705.347Z" fill="#6E5BE9"></path>
<path d="M706.069 998.173C706.069 1009.11 699.713 1017.98 691.872 1017.98C684.031 1017.98 677.675 1009.11 677.675 998.173C677.675 987.236 684.031 978.369 691.872 978.369C699.713 978.369 706.069 987.236 706.069 998.173Z" fill="#1A1A2E"></path>
<path d="M801.628 967.806C801.628 978.743 795.272 987.61 787.431 987.61C779.59 987.61 773.234 978.743 773.234 967.806C773.234 956.868 779.59 948.002 787.431 948.002C795.272 948.002 801.628 956.868 801.628 967.806Z" fill="#1A1A2E"></path>
<path d="M959.495 1065.21L958.768 1066.21C957.381 1068.25 952.401 1073.74 946.019 1080.19C939.592 1086.67 931.615 1094.26 924.135 1100.53C871.385 1144.73 802.402 1140.33 774.46 1132.62C773.662 1132.4 773.193 1131.57 773.413 1130.78C773.633 1129.98 774.459 1129.51 775.258 1129.73C802.664 1137.29 870.493 1141.56 922.208 1098.23C929.595 1092.04 937.501 1084.52 943.888 1078.07C950.32 1071.58 955.233 1066.42 956.434 1064.65L957.547 1063.28L959.495 1065.21Z" fill="#1A1A2E"></path>
<path d="M489.95 1007.95C489.95 976.874 491.338 955.959 495.088 940.075C498.856 924.116 505.001 913.264 514.407 902.289C519.311 896.569 525.087 894.042 531.194 893.504C537.236 892.971 543.539 894.389 549.575 896.405C555.584 898.412 561.57 901.103 566.781 903.152C572.127 905.254 576.597 906.653 580 906.457C585.479 906.14 589.714 903.058 592.836 899.147C595.966 895.226 597.861 890.603 598.633 887.583C598.838 886.78 599.655 886.296 600.457 886.501C601.26 886.706 601.744 887.522 601.539 888.325C600.682 891.681 598.621 896.709 595.181 901.019C591.733 905.339 586.783 909.069 580.173 909.451C576.02 909.691 570.96 908.019 565.684 905.944C560.274 903.817 554.545 901.227 548.625 899.25C542.733 897.282 536.892 896.013 531.457 896.492C526.087 896.965 521.049 899.15 516.685 904.242C507.557 914.892 501.653 925.319 498.007 940.764C494.343 956.286 492.95 976.903 492.95 1007.95C492.95 1038.86 499.09 1072.98 513.107 1099.64C527.106 1126.25 548.857 1145.26 580.144 1146.45H580.15C588.563 1146.81 601.376 1145.28 612.396 1139.56C623.348 1133.87 632.485 1124.09 633.914 1107.82C633.987 1107 634.715 1106.39 635.54 1106.46C636.365 1106.53 636.975 1107.26 636.903 1108.08C635.366 1125.57 625.445 1136.16 613.779 1142.22C602.18 1148.24 588.814 1149.83 580.023 1149.45C547.341 1148.2 524.776 1128.27 510.451 1101.03C496.144 1073.83 489.95 1039.18 489.95 1007.95Z" fill="#1A1A2E"></path>
<path d="M622.464 1275.38C621.826 1275.91 620.88 1275.82 620.352 1275.18C619.824 1274.55 619.914 1273.6 620.552 1273.07C621.882 1271.97 624.956 1270.11 629.962 1267.85C635.005 1265.57 642.088 1262.86 651.498 1260.08C670.392 1254.51 687.268 1254.29 693.457 1254.9C694.281 1254.98 694.884 1255.71 694.803 1256.54C694.723 1257.36 693.989 1257.97 693.164 1257.89C687.347 1257.32 670.858 1257.5 652.345 1262.96C643.05 1265.7 636.099 1268.37 631.197 1270.58C626.259 1272.81 623.479 1274.55 622.464 1275.38Z" fill="#1A1A2E"></path>
<path d="M614.742 1249.16C614.104 1249.69 613.158 1249.6 612.63 1248.96C612.102 1248.32 612.192 1247.37 612.83 1246.85C614.16 1245.75 617.234 1243.88 622.24 1241.62C627.283 1239.34 634.366 1236.63 643.776 1233.86C662.67 1228.29 679.546 1228.07 685.734 1228.67C686.559 1228.75 687.162 1229.49 687.081 1230.31C687.001 1231.14 686.267 1231.74 685.442 1231.66C679.625 1231.09 663.136 1231.28 644.623 1236.73C635.328 1239.47 628.377 1242.14 623.475 1244.36C618.537 1246.59 615.757 1248.32 614.742 1249.16Z" fill="#1A1A2E"></path>
<path d="M930.894 1175.96C930.614 1176.74 929.754 1177.14 928.974 1176.86C928.195 1176.58 927.791 1175.72 928.071 1174.94C928.656 1173.32 930.354 1170.15 933.512 1165.65C936.693 1161.13 941.408 1155.18 948.095 1148.01C961.524 1133.6 975.938 1124.82 981.573 1122.19C982.324 1121.84 983.216 1122.16 983.567 1122.91C983.917 1123.66 983.592 1124.56 982.841 1124.91C977.544 1127.38 963.447 1135.93 950.289 1150.05C943.684 1157.14 939.059 1162.98 935.966 1167.38C932.851 1171.81 931.341 1174.72 930.894 1175.96Z" fill="#1A1A2E"></path>
<path d="M870.673 927.523C876.149 926.382 886.27 924.183 899.518 930.741C900.26 931.108 900.565 932.008 900.197 932.75C899.83 933.493 898.93 933.796 898.187 933.429C885.867 927.331 876.583 929.356 871.285 930.46L869.817 930.766L869.205 927.829L870.673 927.523Z" fill="#1A1A2E"></path>
<path d="M904.029 875.673C904.325 874.9 903.938 874.032 903.165 873.735C883.577 866.224 870.713 867.347 865.171 869.899L864.926 871.715L864.703 873.519L866.045 872.82C870.165 870.669 882.205 868.911 902.091 876.536C902.864 876.833 903.732 876.447 904.029 875.673Z" fill="#1A1A2E"></path>
<path d="M913.142 829.772C913.549 829.05 913.294 828.136 912.573 827.729C900.874 821.129 887.647 822.277 880.863 824.047C880.335 824.935 879.194 826.929 878.777 827.846L879.877 827.467C885.249 825.613 899.121 823.584 911.099 830.341C911.82 830.748 912.735 830.493 913.142 829.772Z" fill="#1A1A2E"></path>
<path d="M863.56 448.853C863.56 470.189 846.264 487.486 824.927 487.486C803.591 487.486 786.294 470.189 786.294 448.853C786.294 427.516 803.591 410.219 824.927 410.219C846.264 410.219 863.56 427.516 863.56 448.853Z" fill="#2D4A3E"></path>
<path d="M811.866 618.369C811.866 639.706 794.57 657.002 773.233 657.002C751.897 657.002 734.6 639.706 734.6 618.369C734.6 597.033 751.897 579.736 773.233 579.736C794.57 579.736 811.866 597.033 811.866 618.369Z" fill="#2D4A3E"></path>
<path d="M994.749 562.472C994.749 601.158 963.388 632.519 924.702 632.519C886.016 632.519 854.655 601.158 854.655 562.472C854.655 523.786 886.016 492.426 924.702 492.426C963.388 492.426 994.749 523.786 994.749 562.472Z" fill="#2D4A3E"></path>
<path d="M844.605 429.175C845.777 428.003 847.689 427.995 848.741 429.275C850.669 431.62 852.243 434.241 853.409 437.055C854.575 439.87 855.315 442.837 855.61 445.858C855.771 447.507 854.412 448.853 852.756 448.853H845.157C843.5 448.853 842.183 447.5 841.896 445.868C841.679 444.634 841.327 443.423 840.845 442.26C840.363 441.096 839.756 439.991 839.037 438.964C838.086 437.608 838.06 435.72 839.231 434.548L844.605 429.175Z" fill="#A8E6CF"></path>
<path d="M792.912 598.691C794.083 597.52 795.996 597.511 797.048 598.791C798.975 601.136 800.55 603.757 801.716 606.572C802.881 609.387 803.621 612.353 803.916 615.375C804.077 617.024 802.719 618.37 801.062 618.37H793.464C791.807 618.37 790.49 617.017 790.203 615.385C789.986 614.15 789.634 612.94 789.152 611.776C788.67 610.612 788.063 609.508 787.343 608.481C786.392 607.124 786.366 605.237 787.538 604.065L792.912 598.691Z" fill="#A8E6CF"></path>
<path d="M962.105 525.07C963.276 523.899 965.183 523.893 966.29 525.126C970.515 529.832 973.917 535.226 976.342 541.083C978.768 546.939 980.178 553.159 980.517 559.475C980.606 561.129 979.254 562.473 977.597 562.473H958.941C957.284 562.473 955.956 561.127 955.797 559.478C955.501 556.403 954.75 553.383 953.563 550.518C952.377 547.654 950.773 544.987 948.808 542.603C947.754 541.325 947.741 539.434 948.913 538.262L962.105 525.07Z" fill="#A8E6CF"></path>
<path d="M755.575 1342.38C733.109 1334.94 704.311 1334.01 674.533 1341.44C644.755 1348.88 619.771 1363.23 603.437 1380.36C587.846 1396.7 580.265 1415.4 583.56 1432.98L579.845 1422.63C580.51 1407.26 588.343 1391.83 601.267 1378.29C618.05 1360.69 643.563 1346.08 673.807 1338.53C704.05 1330.98 733.435 1331.89 756.519 1339.53C771.185 1344.38 783.393 1352 791.602 1361.96C792.509 1364.64 794.07 1369.18 795.45 1373.43C788.632 1359.35 774.402 1348.61 755.575 1342.38Z" fill="#1A1A2E"></path>
<path d="M1034.43 1181.57C1050.8 1178.17 1066.24 1179.08 1078.8 1184.79L1086.92 1193.21C1074 1183.02 1055.53 1180.25 1035.04 1184.51C1012.16 1189.27 987.004 1202.76 964.961 1224.06C942.918 1245.36 928.508 1270.08 922.911 1292.82C917.506 1314.78 920.354 1334.68 932.157 1348.06L922.257 1338.16C916.365 1325.11 915.833 1309.03 919.998 1292.1C925.75 1268.73 940.494 1243.54 962.877 1221.91C985.26 1200.28 1010.91 1186.46 1034.43 1181.57Z" fill="#1A1A2E"></path>
<rect width="1200" height="1200" transform="translate(170 1655.5)" fill="white"></rect>
<path d="M935.852 2005.35C943.342 2004.34 940.224 1960.4 969.053 1962.48C991.843 1964.12 986.661 1998.74 986.718 2022.6C987.082 2027.7 987.448 2032.81 987.812 2037.91C988.766 2051.28 989.72 2064.64 990.674 2078C991.832 2101.61 985.974 2125.86 973.686 2146.82C970.707 2152.22 967.728 2157.62 964.749 2163.02C960.502 2172.57 961.032 2183.2 965.099 2191.23C969.57 2203.56 974.042 2215.89 978.514 2228.23C982.37 2239.84 985.121 2253.43 984.801 2268.41C984.504 2286.5 984.611 2303.41 977.111 2328.74C973.899 2337.7 970.909 2348.36 957.542 2363.27L1071.53 2477.26L1093.47 2500.01C1095.96 2503.18 1097.79 2506.84 1099 2510.9C1111.91 2540.56 1096.64 2586.67 1059.72 2622.35C990.926 2691.15 932.301 2648.18 932.301 2648.18L760.451 2476.35C751.996 2479.16 743.192 2481.21 734.12 2482.41L791.357 2661.24C792.76 2665.42 796.592 2676.39 797.829 2681.35C807.026 2718.19 765.792 2759.94 707.593 2774.47C654.831 2787.65 600.241 2765.82 584.538 2735.71L484.975 2458.11C468.104 2403.57 466.295 2392.08 463.148 2374.56C459.422 2353.81 458.547 2325.35 458.547 2316.63V2253.42C458.547 2142.97 548.09 2053.42 658.547 2053.42C765.675 2053.42 853.13 2137.65 858.304 2243.5C858.464 2245.95 858.641 2248.39 858.925 2250.69C858.935 2250.77 860.145 2260.28 865.046 2263.53C866.12 2264.12 866.805 2264.09 867.863 2264.12C875.763 2264.33 873.933 2251.02 871.859 2240.58C870.36 2233.38 868.86 2226.18 867.36 2218.98C858.485 2182.2 866.563 2142.66 887.866 2113.18C891.582 2108.25 895.299 2103.33 899.015 2098.41C903.876 2092.99 907.304 2085.85 908.417 2078C909.371 2064.64 910.324 2051.28 911.278 2037.91C911.635 2032.91 911.992 2027.91 912.349 2022.92C911.979 2012.3 912.963 1990.91 918.257 1986.49C924.976 1980.88 928.361 2006.35 935.852 2005.35Z" fill="#6E5BE9"></path>
<path d="M706.069 2298.17C706.069 2309.11 699.713 2317.98 691.872 2317.98C684.031 2317.98 677.675 2309.11 677.675 2298.17C677.675 2287.24 684.031 2278.37 691.872 2278.37C699.713 2278.37 706.069 2287.24 706.069 2298.17Z" fill="white"></path>
<path d="M801.628 2267.81C801.628 2278.74 795.272 2287.61 787.431 2287.61C779.59 2287.61 773.234 2278.74 773.234 2267.81C773.234 2256.87 779.59 2248 787.431 2248C795.272 2248 801.628 2256.87 801.628 2267.81Z" fill="white"></path>
<path d="M959.495 2365.21L958.768 2366.21C957.381 2368.25 952.401 2373.74 946.019 2380.19C939.592 2386.67 931.615 2394.26 924.135 2400.53C871.385 2444.73 802.402 2440.33 774.46 2432.62C773.662 2432.4 773.193 2431.57 773.413 2430.78C773.633 2429.98 774.459 2429.51 775.258 2429.73C802.664 2437.29 870.493 2441.56 922.208 2398.23C929.595 2392.04 937.501 2384.52 943.888 2378.07C950.32 2371.58 955.233 2366.42 956.434 2364.65L957.547 2363.28L959.495 2365.21Z" fill="white"></path>
<path d="M489.95 2307.95C489.95 2276.87 491.338 2255.96 495.088 2240.07C498.856 2224.12 505.001 2213.26 514.407 2202.29C519.311 2196.57 525.087 2194.04 531.194 2193.5C537.236 2192.97 543.539 2194.39 549.575 2196.41C555.584 2198.41 561.57 2201.1 566.781 2203.15C572.127 2205.25 576.597 2206.65 580 2206.46C585.479 2206.14 589.714 2203.06 592.836 2199.15C595.966 2195.23 597.861 2190.6 598.633 2187.58C598.838 2186.78 599.655 2186.3 600.457 2186.5C601.26 2186.71 601.744 2187.52 601.539 2188.32C600.682 2191.68 598.621 2196.71 595.181 2201.02C591.733 2205.34 586.783 2209.07 580.173 2209.45C576.02 2209.69 570.96 2208.02 565.684 2205.94C560.274 2203.82 554.545 2201.23 548.625 2199.25C542.733 2197.28 536.892 2196.01 531.457 2196.49C526.087 2196.97 521.049 2199.15 516.685 2204.24C507.557 2214.89 501.653 2225.32 498.007 2240.76C494.343 2256.29 492.95 2276.9 492.95 2307.95C492.95 2338.86 499.09 2372.98 513.107 2399.64C527.106 2426.25 548.857 2445.26 580.144 2446.45H580.15C588.563 2446.81 601.376 2445.28 612.396 2439.56C623.348 2433.87 632.485 2424.09 633.914 2407.82C633.987 2407 634.715 2406.39 635.54 2406.46C636.365 2406.53 636.975 2407.26 636.903 2408.08C635.366 2425.57 625.445 2436.16 613.779 2442.22C602.18 2448.24 588.814 2449.83 580.023 2449.45C547.341 2448.2 524.776 2428.27 510.451 2401.03C496.144 2373.83 489.95 2339.18 489.95 2307.95Z" fill="white"></path>
<path d="M622.464 2575.38C621.826 2575.91 620.88 2575.82 620.352 2575.18C619.824 2574.55 619.914 2573.6 620.552 2573.07C621.882 2571.97 624.956 2570.11 629.962 2567.85C635.005 2565.57 642.088 2562.86 651.498 2560.08C670.392 2554.51 687.268 2554.29 693.457 2554.9C694.281 2554.98 694.884 2555.71 694.803 2556.54C694.723 2557.36 693.989 2557.97 693.164 2557.89C687.347 2557.32 670.858 2557.5 652.345 2562.96C643.05 2565.7 636.099 2568.37 631.197 2570.58C626.259 2572.81 623.479 2574.55 622.464 2575.38Z" fill="white"></path>
<path d="M614.742 2549.16C614.104 2549.69 613.158 2549.6 612.63 2548.96C612.102 2548.32 612.192 2547.37 612.83 2546.85C614.16 2545.75 617.234 2543.88 622.24 2541.62C627.283 2539.34 634.366 2536.63 643.776 2533.86C662.67 2528.29 679.546 2528.07 685.734 2528.67C686.559 2528.75 687.162 2529.49 687.081 2530.31C687.001 2531.14 686.267 2531.74 685.442 2531.66C679.625 2531.09 663.136 2531.28 644.623 2536.73C635.328 2539.47 628.377 2542.14 623.475 2544.36C618.537 2546.59 615.757 2548.32 614.742 2549.16Z" fill="white"></path>
<path d="M930.894 2475.96C930.614 2476.74 929.754 2477.14 928.974 2476.86C928.195 2476.58 927.791 2475.72 928.071 2474.94C928.656 2473.32 930.354 2470.15 933.512 2465.65C936.693 2461.13 941.408 2455.18 948.095 2448.01C961.524 2433.6 975.938 2424.82 981.573 2422.19C982.324 2421.84 983.216 2422.16 983.567 2422.91C983.917 2423.66 983.592 2424.56 982.841 2424.91C977.544 2427.38 963.447 2435.93 950.289 2450.05C943.684 2457.14 939.059 2462.98 935.966 2467.38C932.851 2471.81 931.341 2474.72 930.894 2475.96Z" fill="white"></path>
<path d="M870.673 2227.52C876.149 2226.38 886.27 2224.18 899.518 2230.74C900.26 2231.11 900.565 2232.01 900.197 2232.75C899.83 2233.49 898.93 2233.8 898.187 2233.43C885.867 2227.33 876.583 2229.36 871.285 2230.46L869.817 2230.77L869.205 2227.83L870.673 2227.52Z" fill="white"></path>
<path d="M904.029 2175.67C904.325 2174.9 903.938 2174.03 903.165 2173.74C883.577 2166.22 870.713 2167.35 865.171 2169.9L864.926 2171.71L864.703 2173.52L866.045 2172.82C870.165 2170.67 882.205 2168.91 902.091 2176.54C902.864 2176.83 903.732 2176.45 904.029 2175.67Z" fill="white"></path>
<path d="M913.142 2129.77C913.549 2129.05 913.294 2128.14 912.573 2127.73C900.874 2121.13 887.647 2122.28 880.863 2124.05C880.335 2124.93 879.194 2126.93 878.777 2127.85L879.877 2127.47C885.249 2125.61 899.121 2123.58 911.099 2130.34C911.82 2130.75 912.735 2130.49 913.142 2129.77Z" fill="white"></path>
<path d="M863.56 1748.85C863.56 1770.19 846.264 1787.49 824.927 1787.49C803.591 1787.49 786.294 1770.19 786.294 1748.85C786.294 1727.52 803.591 1710.22 824.927 1710.22C846.264 1710.22 863.56 1727.52 863.56 1748.85Z" fill="#A8E6CF"></path>
<path d="M811.866 1918.37C811.866 1939.71 794.57 1957 773.233 1957C751.897 1957 734.6 1939.71 734.6 1918.37C734.6 1897.03 751.897 1879.74 773.233 1879.74C794.57 1879.74 811.866 1897.03 811.866 1918.37Z" fill="#A8E6CF"></path>
<path d="M994.749 1862.47C994.749 1901.16 963.388 1932.52 924.702 1932.52C886.016 1932.52 854.655 1901.16 854.655 1862.47C854.655 1823.79 886.016 1792.43 924.702 1792.43C963.388 1792.43 994.749 1823.79 994.749 1862.47Z" fill="#A8E6CF"></path>
<path d="M844.605 1729.17C845.777 1728 847.689 1727.99 848.741 1729.27C850.669 1731.62 852.243 1734.24 853.409 1737.06C854.575 1739.87 855.315 1742.84 855.61 1745.86C855.771 1747.51 854.412 1748.85 852.756 1748.85H845.157C843.5 1748.85 842.183 1747.5 841.896 1745.87C841.679 1744.63 841.327 1743.42 840.845 1742.26C840.363 1741.1 839.756 1739.99 839.037 1738.96C838.086 1737.61 838.06 1735.72 839.231 1734.55L844.605 1729.17Z" fill="white"></path>
<path d="M792.912 1898.69C794.083 1897.52 795.996 1897.51 797.048 1898.79C798.975 1901.14 800.55 1903.76 801.716 1906.57C802.881 1909.39 803.621 1912.35 803.916 1915.37C804.077 1917.02 802.719 1918.37 801.062 1918.37H793.464C791.807 1918.37 790.49 1917.02 790.203 1915.38C789.986 1914.15 789.634 1912.94 789.152 1911.78C788.67 1910.61 788.063 1909.51 787.343 1908.48C786.392 1907.12 786.366 1905.24 787.538 1904.06L792.912 1898.69Z" fill="white"></path>
<path d="M962.105 1825.07C963.276 1823.9 965.183 1823.89 966.29 1825.13C970.515 1829.83 973.917 1835.23 976.342 1841.08C978.768 1846.94 980.178 1853.16 980.517 1859.47C980.606 1861.13 979.254 1862.47 977.597 1862.47H958.941C957.284 1862.47 955.956 1861.13 955.797 1859.48C955.501 1856.4 954.75 1853.38 953.563 1850.52C952.377 1847.65 950.773 1844.99 948.808 1842.6C947.754 1841.32 947.741 1839.43 948.913 1838.26L962.105 1825.07Z" fill="white"></path>
<path d="M755.575 2642.38C733.109 2634.94 704.311 2634.01 674.533 2641.44C644.755 2648.88 619.771 2663.23 603.437 2680.36C587.846 2696.7 580.265 2715.4 583.56 2732.98L579.845 2722.63C580.51 2707.26 588.343 2691.83 601.267 2678.29C618.05 2660.69 643.563 2646.08 673.807 2638.53C704.05 2630.98 733.435 2631.89 756.519 2639.53C771.185 2644.38 783.393 2652 791.602 2661.96C792.509 2664.64 794.07 2669.18 795.45 2673.43C788.632 2659.35 774.402 2648.61 755.575 2642.38Z" fill="white"></path>
<path d="M1034.43 2481.57C1050.8 2478.17 1066.24 2479.08 1078.8 2484.79L1086.92 2493.21C1074 2483.02 1055.53 2480.25 1035.04 2484.51C1012.16 2489.27 987.004 2502.76 964.961 2524.06C942.918 2545.36 928.508 2570.08 922.911 2592.82C917.506 2614.78 920.354 2634.68 932.157 2648.06L922.257 2638.16C916.365 2625.11 915.833 2609.03 919.998 2592.1C925.75 2568.73 940.494 2543.54 962.877 2521.91C985.26 2500.28 1010.91 2486.46 1034.43 2481.57Z" fill="white"></path>
<rect width="1200" height="1200" transform="translate(4027.07 1655.5)" fill="white"></rect>
<path d="M4484.25 1875.71C4589.19 1875.71 4674.07 1960.77 4674.07 2065.71V2168.96C4674.07 2173.38 4677.72 2177.11 4681.98 2175.94C4692.94 2172.94 4699.48 2163.62 4699.23 2151.98C4694.35 2108.93 4689.48 2065.88 4684.6 2022.83C4675.88 1969.26 4717.39 1916.8 4767.76 1911.68C4818.92 1903.61 4866.64 1949.23 4862.93 1996.99C4862.54 2002.83 4862.15 2008.67 4861.75 2014.51C4861.2 2022.74 4860.74 2032.19 4860.18 2040.42C4860.18 2040.42 4852.79 2037.03 4845.3 2037.03C4843.82 2037.03 4842.03 2037.12 4840.13 2037.41V2039.04C4840.13 2044.52 4837.01 2055.5 4824.51 2055.5C4812.01 2055.5 4808.53 2044.52 4808.35 2039.04L4808.4 2039.02C4807.85 2030.85 4807.3 2022.68 4806.75 2014.51C4806.36 2008.67 4805.97 2002.83 4805.57 1996.99C4803.81 1983.07 4788.85 1975.88 4779.56 1980.19C4766.57 1984.37 4761.2 1998.98 4765.5 2008.1L4797.32 2134.12C4812.23 2194.46 4775.68 2264.29 4713.18 2286.31C4700.69 2290.91 4687.3 2293.69 4674.07 2294.5L4674.25 2519.65H4674.07C4672.86 2556.96 4624.63 2586.96 4565.12 2586.96C4539.63 2586.96 4516.19 2581.46 4497.62 2572.24C4474.06 2586.5 4439.59 2595.5 4401.2 2595.5C4330.18 2595.5 4272.07 2564.53 4272.07 2526.56V2065.5C4272.07 1960.57 4360.15 1875.71 4465.08 1875.71H4484.25Z" fill="#6E5BE9"></path>
<path d="M4372.75 2035.5C4372.75 2032.83 4371.53 2028.2 4367.95 2024.24C4364.43 2020.33 4358.53 2017 4349.02 2017C4343.33 2017 4338.81 2019.39 4335.17 2023.65C4331.49 2027.95 4328.71 2034.16 4326.66 2041.69C4322.54 2056.74 4321.47 2076.57 4321.47 2095.5V2215.46L4321.49 2216.08C4321.75 2222.54 4323.65 2231.91 4328.52 2239.71C4333.5 2247.68 4341.54 2254 4354.25 2254C4366.99 2254 4376.03 2247.65 4382.22 2239.59C4388.43 2231.49 4391.69 2221.73 4392.77 2215.25C4392.91 2214.43 4393.68 2213.88 4394.5 2214.02C4395.32 2214.16 4395.87 2214.93 4395.73 2215.75C4394.58 2222.6 4391.17 2232.85 4384.6 2241.41C4378 2250.02 4368.15 2257 4354.25 2257C4340.33 2257 4331.39 2249.98 4325.97 2241.29C4320.59 2232.68 4318.64 2222.4 4318.47 2215.54V2095.5C4318.47 2076.54 4319.54 2056.37 4323.76 2040.9C4325.87 2033.16 4328.81 2026.47 4332.9 2021.7C4337.03 2016.87 4342.34 2014 4349.02 2014C4359.31 2014 4366.04 2017.64 4370.18 2022.22C4374.27 2026.75 4375.75 2032.11 4375.75 2035.5C4375.75 2036.33 4375.08 2037 4374.25 2037C4373.43 2037 4372.75 2036.33 4372.75 2035.5Z" fill="white"></path>
<path d="M4915.7 2457.75C4915.69 2462.36 4918.89 2466.51 4923.58 2467.53L4924.2 2467.66C4914.56 2477.82 4910.71 2490.45 4910.06 2502.88C4909.37 2516.07 4912.35 2528.3 4915.16 2535.17H4894.59C4890.8 2525.89 4889.22 2518.29 4890.09 2501.83C4890.75 2489.19 4894.1 2475.37 4902.45 2462.94L4904.48 2463.38C4909.16 2464.4 4913.79 2461.95 4915.7 2457.75Z" fill="#2D4A3E"></path>
<path d="M4929.94 2346.11C4934.63 2347.13 4937.83 2351.28 4937.82 2355.88C4939.73 2351.69 4944.36 2349.24 4949.04 2350.26L4988.13 2358.75C4993.53 2359.92 4996.95 2365.25 4995.78 2370.64L4987.29 2409.73C4986.12 2415.13 4980.8 2418.55 4975.4 2417.38C4980.8 2418.55 4984.22 2423.88 4983.05 2429.28L4974.56 2468.36C4973.39 2473.76 4968.06 2477.19 4962.67 2476.01L4923.58 2467.53C4918.89 2466.51 4915.69 2462.36 4915.7 2457.75C4913.79 2461.95 4909.16 2464.4 4904.48 2463.38L4865.39 2454.89C4859.99 2453.72 4856.57 2448.39 4857.74 2442.99L4866.23 2403.91C4867.4 2398.51 4872.73 2395.08 4878.12 2396.26C4872.73 2395.08 4869.3 2389.76 4870.47 2384.36L4878.96 2345.27C4880.13 2339.88 4885.46 2336.45 4890.86 2337.62L4929.94 2346.11Z" fill="#6E5BE9"></path>
<path d="M4946.53 2411.11C4944.18 2421.91 4933.53 2428.76 4922.74 2426.41C4911.94 2424.07 4905.09 2413.42 4907.44 2402.62C4909.78 2391.83 4920.43 2384.98 4931.23 2387.32C4942.02 2389.67 4948.87 2400.32 4946.53 2411.11Z" fill="#A8E6CF"></path>
<path d="M4558.19 2115.7C4558.19 2126.63 4551.83 2135.5 4543.99 2135.5C4536.15 2135.5 4529.8 2126.63 4529.8 2115.7C4529.8 2104.76 4536.15 2095.89 4543.99 2095.89C4551.83 2095.89 4558.19 2104.76 4558.19 2115.7Z" fill="white"></path>
<path d="M4638.71 2115.7C4638.71 2126.63 4632.36 2135.5 4624.51 2135.5C4616.67 2135.5 4610.32 2126.63 4610.32 2115.7C4610.32 2104.76 4616.67 2095.89 4624.51 2095.89C4632.36 2095.89 4638.71 2104.76 4638.71 2115.7Z" fill="white"></path>
<path d="M4670.8 2458.15C4672.18 2457.66 4673.29 2457.19 4674.2 2456.75L4674.2 2460.04C4673.5 2460.34 4672.71 2460.66 4671.81 2460.98C4667.73 2462.44 4661.58 2464.03 4651.86 2465.42C4632.36 2468.21 4615.63 2466 4609.59 2464.51C4608.79 2464.32 4608.3 2463.5 4608.5 2462.7C4608.7 2461.9 4609.51 2461.4 4610.31 2461.6C4615.99 2463 4632.33 2465.19 4651.44 2462.45C4661.02 2461.08 4666.97 2459.53 4670.8 2458.15Z" fill="white"></path>
<path d="M4666.73 2417.22C4670.07 2416.43 4672.52 2415.68 4674.17 2415.07L4674.17 2418.25C4672.44 2418.84 4670.2 2419.49 4667.42 2420.14C4662.03 2421.41 4654.56 2422.71 4644.79 2423.63C4625.18 2425.47 4608.58 2422.44 4602.62 2420.66C4601.82 2420.42 4601.37 2419.59 4601.61 2418.79C4601.85 2418 4602.68 2417.55 4603.48 2417.79C4609.08 2419.46 4625.29 2422.44 4644.51 2420.64C4654.16 2419.74 4661.49 2418.45 4666.73 2417.22Z" fill="white"></path>
<path d="M4612.3 2293.64C4612.45 2292.83 4613.24 2292.29 4614.05 2292.44C4641.53 2297.2 4665.51 2295.79 4674.07 2294.5L4674.07 2297.51C4646.76 2300.36 4626.4 2297.81 4613.5 2295.39C4612.68 2295.24 4612.15 2294.45 4612.3 2293.64Z" fill="white"></path>
<path d="M4687.27 2182.84C4686.64 2179.62 4686.55 2176.57 4686.71 2174.12C4687.86 2173.54 4688.95 2172.87 4689.96 2172.12C4689.57 2174.41 4689.41 2178.18 4690.22 2182.26C4691.05 2186.49 4692.9 2190.95 4696.47 2194.42C4697.06 2195 4697.07 2195.95 4696.5 2196.55C4695.92 2197.14 4694.97 2197.15 4694.37 2196.58C4690.25 2192.56 4688.19 2187.48 4687.27 2182.84Z" fill="white"></path>
<path d="M4705.5 2182.46C4698.38 2178.9 4694.74 2173.41 4693.16 2169.23C4693.99 2168.33 4694.73 2167.36 4695.4 2166.33C4696.22 2169.77 4699.24 2175.97 4706.84 2179.78C4707.58 2180.15 4707.89 2181.05 4707.51 2181.79C4707.14 2182.53 4706.24 2182.83 4705.5 2182.46Z" fill="white"></path>
<path d="M4763.49 1941.3C4758.42 1927.34 4749.24 1920.48 4743.57 1917.94C4744.8 1917.43 4746.04 1916.94 4747.28 1916.47C4753.53 1920.02 4761.62 1927.36 4766.31 1940.28C4766.6 1941.05 4766.19 1941.92 4765.42 1942.2C4764.64 1942.48 4763.78 1942.08 4763.49 1941.3Z" fill="white"></path>
<path d="M4782.45 1930.8C4777.61 1921.13 4770.87 1915 4766.18 1911.86C4766.71 1911.79 4767.23 1911.73 4767.76 1911.68C4768.68 1911.54 4769.59 1911.41 4770.51 1911.3C4775.24 1915.03 4780.89 1920.98 4785.13 1929.46C4785.5 1930.2 4785.2 1931.11 4784.46 1931.48C4783.72 1931.85 4782.82 1931.55 4782.45 1930.8Z" fill="white"></path>
<path d="M4531.27 2526.32C4530.64 2543.94 4519.02 2560.53 4500.25 2573.5L4498.99 2572.91L4497.63 2572.24C4517.25 2559.03 4528.3 2542.04 4528.3 2524.82V2458.47C4527.04 2459.19 4525.3 2460.06 4522.74 2460.97C4518.66 2462.44 4512.5 2464.02 4502.79 2465.42C4483.29 2468.21 4466.56 2466 4460.52 2464.51C4459.72 2464.32 4459.22 2463.5 4459.42 2462.7C4459.62 2461.9 4460.43 2461.4 4461.24 2461.6C4466.91 2463 4483.26 2465.19 4502.36 2462.45C4511.95 2461.07 4517.89 2459.53 4521.73 2458.15C4525.26 2456.89 4527.03 2455.76 4528.3 2454.97V2416.97C4526.67 2417.79 4523.38 2418.95 4518.34 2420.14C4512.96 2421.41 4505.49 2422.71 4495.72 2423.63C4476.11 2425.47 4459.5 2422.44 4453.54 2420.66C4452.75 2420.42 4452.3 2419.59 4452.54 2418.79C4452.78 2418 4453.61 2417.55 4454.41 2417.79C4460.01 2419.46 4476.22 2422.44 4495.44 2420.64C4505.09 2419.74 4512.42 2418.45 4517.66 2417.22C4522.93 2415.98 4525.99 2414.81 4527.15 2414.18C4527.52 2413.98 4527.93 2413.95 4528.3 2414.06V2342.35C4528.3 2341.52 4528.97 2340.85 4529.8 2340.85C4530.63 2340.85 4531.3 2341.52 4531.3 2342.35V2526.32H4531.27Z" fill="white"></path>
<path d="M4845.3 2037.03C4850.54 2037.03 4855.73 2038.69 4858.38 2039.69C4863.19 2041.59 4867.7 2044.49 4871.59 2048.38L4886.16 2062.95L4891.13 2057.98C4900.11 2049 4914.67 2049 4923.65 2057.98L4959.76 2094.08C4968.74 2103.06 4968.74 2117.63 4959.76 2126.61L4923.31 2163.06H4954.36C4957.14 2140.23 4969.24 2123.06 4983.76 2123.06C5000.32 2123.06 5013.76 2145.44 5013.76 2173.06C5013.76 2200.67 5000.32 2223.06 4983.76 2223.06C4969.24 2223.06 4957.14 2205.88 4954.36 2183.06H4903.31L4893.29 2193.08C4884.31 2202.06 4869.74 2202.06 4860.76 2193.08L4824.66 2156.97C4815.68 2147.99 4815.68 2133.43 4824.66 2124.45L4829.62 2119.48L4815.05 2104.91C4800.34 2090.2 4799.84 2066.67 4813.55 2051.35C4816.02 2053.78 4819.56 2055.5 4824.51 2055.5C4837.01 2055.5 4840.13 2044.52 4840.13 2039.04V2037.41C4842.03 2037.12 4843.82 2037.03 4845.3 2037.03ZM4983.76 2197.85C4980.71 2197.85 4978.24 2200.32 4978.24 2203.37C4978.24 2206.41 4980.71 2208.88 4983.76 2208.88C4986.8 2208.88 4989.27 2206.41 4989.27 2203.37C4989.27 2200.32 4986.8 2197.85 4983.76 2197.85ZM4983.76 2177.75C4980.71 2177.75 4978.24 2180.22 4978.24 2183.26C4978.24 2186.31 4980.71 2188.78 4983.76 2188.78C4986.8 2188.78 4989.27 2186.31 4989.27 2183.26C4989.27 2180.22 4986.8 2177.75 4983.76 2177.75ZM4983.76 2157.64C4980.71 2157.64 4978.24 2160.11 4978.24 2163.16C4978.24 2166.2 4980.71 2168.67 4983.76 2168.67C4986.8 2168.67 4989.27 2166.2 4989.27 2163.16C4989.27 2160.11 4986.8 2157.64 4983.76 2157.64ZM4983.76 2137.54C4980.71 2137.54 4978.24 2140.01 4978.24 2143.05C4978.24 2146.1 4980.71 2148.57 4983.76 2148.57C4986.8 2148.57 4989.27 2146.1 4989.27 2143.05C4989.27 2140.01 4986.8 2137.54 4983.76 2137.54ZM4857.45 2062.52C4850.03 2055.1 4838 2055.1 4830.58 2062.52L4829.2 2063.9C4821.78 2071.32 4821.78 2083.35 4829.2 2090.77L4843.76 2105.34L4872.02 2077.09L4857.45 2062.52Z" fill="#2D4A3E"></path>
<rect width="1200" height="1200" transform="translate(2741.38 1655.5)" fill="white"></rect>
<path d="M3639.42 1706.23C3696.21 1684.65 3759.8 1713.36 3781.39 1770.15C3802.97 1826.94 3774.49 1890.64 3717.71 1912.22L3422.16 2024.55L3433.06 2154.24C3433.35 2157.7 3428.5 2158.8 3427.26 2155.55L3383.11 2039.38L3362.49 2047.22C3305.71 2068.8 3242.11 2040.09 3220.52 1983.3C3198.94 1926.51 3227.42 1862.81 3284.21 1841.23L3639.42 1706.23Z" fill="#A8E6CF"></path>
<path d="M3379.15 2052.23C3387.9 2051.95 3374.86 2074.1 3381.38 2077.92C3387.9 2081.75 3412.53 2045.23 3433.95 2064.63C3451.08 2080.16 3424.85 2104.62 3410.28 2123.54L3410.25 2123.52C3406.15 2129.37 3402.71 2135.26 3400.13 2140.96C3386.09 2173.77 3398.8 2191.14 3434.18 2209.8C3465.7 2226.11 3497.04 2249.65 3516.46 2289.7C3537.61 2329.41 3528.28 2388.52 3502.35 2421.02C3468.38 2465.92 3420.02 2480.91 3373.41 2477.43L3442.05 2595.66C3444.72 2598.82 3445.92 2600.63 3447.52 2603.4C3448.95 2605.89 3452.08 2610.79 3452.76 2613.58C3466.03 2646.31 3437.74 2691.18 3388.97 2719.81C3337.24 2750.18 3279.72 2748.25 3260.5 2715.51C3259.48 2713.78 3258.6 2712 3257.83 2710.17L3147.75 2513.55C3147.72 2513.61 3141.38 2527.24 3141.38 2555.74C3141.38 2559.16 3141.88 2715.34 3141.88 2715.5C3141.88 2730.72 3135.15 2751.06 3117.83 2767.6C3100.51 2784.15 3072.63 2796.85 3030.37 2796.85C2988.12 2796.85 2960.29 2784.09 2943.25 2767.52C2926.22 2750.95 2921.38 2730.93 2921.38 2715.5V2275.5C2921.38 2165.04 3010.92 2075.5 3121.38 2075.5C3231.84 2075.5 3321.38 2165.04 3321.38 2275.5C3321.74 2279.63 3321.88 2290.83 3321.88 2295.49C3322.09 2299.66 3322.88 2306.56 3324.54 2313.68C3326.2 2320.83 3329.66 2329.82 3333.33 2334.86C3336.38 2338.87 3339.68 2342.6 3343.22 2346.02C3368.56 2371.99 3408.85 2374.21 3420.41 2359.12C3430.45 2346.63 3432.4 2341.06 3428.75 2328.04C3424.64 2315.12 3410.11 2298.92 3391.54 2287.64C3364.73 2271.65 3337.08 2248.43 3322.51 2212.15C3307.28 2175.66 3315.87 2132.97 3332.36 2105.41C3338.22 2095.03 3344.92 2085.78 3352 2077.32C3358.24 2068.75 3372.24 2052.44 3379.15 2052.23Z" fill="#6E5BE9"></path>
<path d="M3193.99 2315.3C3193.99 2326.24 3187.63 2335.11 3179.79 2335.11C3171.95 2335.11 3165.59 2326.24 3165.59 2315.3C3165.59 2304.37 3171.95 2295.5 3179.79 2295.5C3187.63 2295.5 3193.99 2304.37 3193.99 2315.3Z" fill="white"></path>
<path d="M3276.4 2295.7C3276.4 2306.63 3270.04 2315.5 3262.2 2315.5C3254.36 2315.5 3248 2306.63 3248 2295.7C3248 2284.76 3254.36 2275.89 3262.2 2275.89C3270.04 2275.89 3276.4 2284.76 3276.4 2295.7Z" fill="white"></path>
<path d="M2951.25 2295.5C2951.25 2264.42 2952.63 2243.51 2956.38 2227.62C2960.15 2211.66 2966.3 2200.81 2975.7 2189.83C2980.61 2184.11 2986.38 2181.59 2992.49 2181.05C2998.53 2180.52 3004.83 2181.94 3010.87 2183.95C3016.88 2185.96 3022.86 2188.65 3028.08 2190.7C3033.42 2192.8 3037.89 2194.2 3041.29 2194C3046.77 2193.69 3051.01 2190.6 3054.13 2186.69C3057.26 2182.77 3059.16 2178.15 3059.93 2175.13C3060.13 2174.33 3060.95 2173.84 3061.75 2174.05C3062.55 2174.25 3063.04 2175.07 3062.83 2175.87C3061.98 2179.23 3059.92 2184.26 3056.48 2188.57C3053.03 2192.89 3048.08 2196.62 3041.47 2197C3037.31 2197.24 3032.26 2195.56 3026.98 2193.49C3021.57 2191.36 3015.84 2188.77 3009.92 2186.8C3004.03 2184.83 2998.19 2183.56 2992.75 2184.04C2987.38 2184.51 2982.34 2186.7 2977.98 2191.79C2968.85 2202.44 2962.95 2212.86 2959.3 2228.31C2955.64 2243.83 2954.25 2264.45 2954.25 2295.5C2954.25 2326.4 2960.38 2360.53 2974.4 2387.18C2988.4 2413.8 3010.15 2432.8 3041.44 2434H3041.44C3049.86 2434.36 3062.67 2432.82 3073.69 2427.1C3084.64 2421.42 3093.78 2411.63 3095.21 2395.37C3095.28 2394.54 3096.01 2393.93 3096.83 2394.01C3097.66 2394.08 3098.27 2394.81 3098.2 2395.63C3096.66 2413.12 3086.74 2423.71 3075.07 2429.76C3063.47 2435.79 3050.11 2437.37 3041.32 2437C3008.64 2435.74 2986.07 2415.81 2971.75 2388.58C2957.44 2361.37 2951.25 2326.73 2951.25 2295.5Z" fill="white"></path>
<path d="M3341.35 2507.78C3342.17 2507.76 3342.86 2508.41 3342.88 2509.24C3342.9 2510.07 3342.24 2510.76 3341.42 2510.78C3311.93 2511.44 3289.8 2528.26 3282.5 2536.5C3281.95 2537.12 3281.01 2537.17 3280.39 2536.62C3279.77 2536.07 3279.71 2535.12 3280.26 2534.5C3287.96 2525.82 3310.82 2508.46 3341.35 2507.78Z" fill="white"></path>
<path d="M3338.33 2539.87C3339.16 2539.81 3339.87 2540.44 3339.92 2541.27C3339.98 2542.1 3339.35 2542.81 3338.52 2542.86C3332.69 2543.23 3326.87 2545.32 3321.91 2547.83C3316.96 2550.34 3312.97 2553.23 3310.85 2555.08C3310.22 2555.63 3309.28 2555.56 3308.73 2554.94C3308.19 2554.32 3308.25 2553.37 3308.87 2552.82C3311.19 2550.8 3315.38 2547.78 3320.55 2545.16C3325.72 2542.54 3331.96 2540.27 3338.33 2539.87Z" fill="white"></path>
<path d="M3136.02 2612.17C3138.27 2611.44 3140.11 2610.75 3141.55 2610.16C3141.55 2611.23 3141.55 2612.3 3141.56 2613.38C3140.24 2613.9 3138.7 2614.45 3136.94 2615.02C3131.68 2616.73 3124.34 2618.65 3114.68 2620.37C3095.29 2623.83 3078.49 2622.19 3072.41 2620.91C3071.6 2620.74 3071.08 2619.94 3071.25 2619.13C3071.42 2618.32 3072.22 2617.8 3073.03 2617.97C3078.75 2619.18 3095.16 2620.81 3114.16 2617.42C3123.7 2615.72 3130.9 2613.83 3136.02 2612.17Z" fill="white"></path>
<path d="M3156.93 2500.07C3154.73 2504.3 3152 2509.93 3149.66 2516.97L3147.75 2513.54C3150.07 2506.81 3152.13 2502.81 3154.27 2498.68C3154.65 2497.95 3155.55 2497.66 3156.29 2498.04C3157.03 2498.42 3157.31 2499.33 3156.93 2500.07Z" fill="white"></path>
<path d="M3398.13 2576.75C3413.58 2577.01 3427.33 2580.66 3437.55 2587.91L3442.05 2595.66C3432.31 2585.39 3416.56 2580.08 3398 2579.77C3374.52 2579.39 3346.47 2587.06 3320.08 2602.55C3293.69 2618.04 3274.07 2638.42 3263.43 2658.89C3254 2677.05 3251.68 2695.13 3257.74 2710L3251.78 2699.36C3250.05 2686.25 3253.32 2671.8 3260.72 2657.56C3271.67 2636.49 3291.75 2615.7 3318.56 2599.96C3345.36 2584.23 3373.98 2576.36 3398.13 2576.75Z" fill="white"></path>
<path d="M3268.8 2447.25C3285.75 2457.36 3318.89 2473.81 3373.41 2477.43L3375.23 2480.56C3318.95 2477.17 3284.75 2460.26 3267.26 2449.83C3266.55 2449.41 3266.32 2448.48 3266.74 2447.77C3267.16 2447.06 3268.08 2446.83 3268.8 2447.25Z" fill="white"></path>
<path d="M3443.64 2351.56C3439.29 2349.19 3432.76 2347.69 3428.53 2347C3428.96 2346.04 3429.32 2345.09 3429.61 2344.14C3434.03 2344.9 3440.52 2346.44 3445.08 2348.93C3445.81 2349.33 3446.08 2350.24 3445.68 2350.96C3445.28 2351.69 3444.37 2351.96 3443.64 2351.56Z" fill="white"></path>
<path d="M3420.66 2392C3411.14 2382.7 3407.48 2372.97 3406.53 2367.22C3407.53 2366.98 3408.5 2366.69 3409.43 2366.38C3410.17 2371.34 3413.42 2380.73 3422.76 2389.86C3423.35 2390.44 3423.36 2391.39 3422.78 2391.98C3422.21 2392.57 3421.25 2392.58 3420.66 2392Z" fill="white"></path>
<path d="M3429.37 2319.64C3428.26 2320.76 3427.33 2321.79 3426.56 2322.72C3426.1 2321.78 3425.59 2320.84 3425.04 2319.88C3425.7 2319.13 3426.43 2318.35 3427.24 2317.53C3431.54 2313.2 3438.17 2307.8 3448.02 2301.79C3448.73 2301.36 3449.65 2301.58 3450.08 2302.29C3450.52 2302.99 3450.29 2303.92 3449.59 2304.35C3439.9 2310.26 3433.47 2315.51 3429.37 2319.64Z" fill="white"></path>
<path d="M3138.3 2652.63C3139.69 2652 3140.78 2651.41 3141.68 2650.88L3141.69 2654.31C3141.05 2654.64 3140.34 2654.99 3139.55 2655.36C3135.6 2657.15 3129.6 2659.24 3120.03 2661.44C3100.83 2665.84 3083.97 2665.02 3077.83 2664.04C3077.02 2663.9 3076.46 2663.14 3076.59 2662.32C3076.72 2661.5 3077.49 2660.94 3078.31 2661.07C3084.08 2662 3100.55 2662.82 3119.36 2658.51C3128.8 2656.35 3134.59 2654.31 3138.3 2652.63Z" fill="white"></path>
<rect width="1200" height="1200" transform="translate(1455.69 1655.5)" fill="white"></rect>
<path d="M2286.73 2265.5C2286.73 2171.61 2210.62 2095.5 2116.73 2095.5H1595.69C1557.72 2095.5 1526.94 2149.23 1526.94 2215.5C1526.94 2233.34 1529.17 2250.28 1533.18 2265.5C1529.17 2280.72 1526.94 2297.66 1526.94 2315.5C1526.94 2381.26 1557.24 2434.67 1594.8 2435.5C1594.8 2435.5 2435.07 2435.5 2488.67 2435.5C2542.26 2435.5 2584 2376.01 2561.62 2329.99L2508.84 2219.55C2508.27 2218.42 2506.79 2214.05 2509.78 2208.47C2514.43 2199.81 2519.8 2187.66 2519.8 2187.66C2519.58 2188.27 2520.07 2187.07 2519.8 2187.66C2529.33 2163.78 2531.23 2157.24 2527.09 2155.57C2523.15 2153.97 2520.25 2157.32 2517.59 2160.41C2515.32 2163.03 2513.22 2165.46 2510.78 2164.48C2508.68 2163.64 2509.18 2159.71 2509.78 2155C2510.7 2147.81 2511.84 2138.81 2504.34 2136.17C2495.42 2133.03 2487.4 2142.95 2484.84 2147.49L2472.93 2166.51L2472.95 2166.52L2459.27 2188.05C2458.81 2188.83 2458.36 2189.61 2457.94 2190.41C2449.68 2205.65 2448.09 2224.65 2454.08 2241.52L2474.38 2328.96C2475.02 2331.69 2472.72 2334.21 2469.95 2333.83C2407.27 2325.28 2358.98 2317.78 2298.55 2300.13C2292.47 2298.35 2287.97 2293.36 2286.73 2287.33V2265.5Z" fill="#6E5BE9"></path>
<path d="M2046.57 2135.2C2050.04 2133.97 2053.27 2133.44 2056.01 2134.03C2066.07 2136.21 2071.65 2143.84 2074.55 2152.16C2077.44 2160.45 2077.76 2169.67 2077.18 2175.65C2077.1 2176.47 2076.37 2177.07 2075.55 2176.99C2074.72 2176.91 2074.12 2176.18 2074.2 2175.35C2074.75 2169.68 2074.43 2160.92 2071.72 2153.14C2069.01 2145.38 2064.03 2138.84 2055.37 2136.97C2053.43 2136.55 2050.82 2136.88 2047.57 2138.03C2044.34 2139.17 2040.63 2141.07 2036.55 2143.58C2028.39 2148.62 2018.94 2156.02 2009.23 2164.48C1989.83 2181.38 1969.56 2202.34 1956.82 2216.49C1947.69 2227.33 1935.54 2245.02 1926.8 2263.55C1922.43 2272.81 1918.92 2282.25 1917.06 2291.12C1915.2 2300 1915 2308.2 1917.12 2315.06C1920.02 2324.43 1925.73 2330.42 1933.12 2334.1C1940.57 2337.81 1949.78 2339.2 1959.64 2339.2C1979.4 2339.19 2001.15 2333.6 2015.38 2330.6C2016.19 2330.43 2016.99 2330.95 2017.16 2331.76C2017.33 2332.57 2016.81 2333.36 2016 2333.54C2001.98 2336.49 1979.8 2342.19 1959.64 2342.2C1949.55 2342.2 1939.81 2340.78 1931.79 2336.78C1923.7 2332.76 1917.41 2326.14 1914.26 2315.94C1911.93 2308.42 1912.2 2299.65 1914.12 2290.5C1916.05 2281.33 1919.65 2271.67 1924.09 2262.27C1932.96 2243.47 1945.26 2225.55 1954.54 2214.53L1954.56 2214.51L1954.58 2214.5C1967.37 2200.29 1987.73 2179.23 2007.26 2162.22C2017.02 2153.72 2026.61 2146.19 2034.97 2141.03C2039.15 2138.45 2043.06 2136.44 2046.57 2135.2Z" fill="white"></path>
<path d="M1595.75 2197V2194L1877.19 2194V2197L1595.75 2197Z" fill="white"></path>
<path d="M1762.49 2377.29C1760.5 2383.18 1756.89 2399.66 1758.03 2419.33C1758.44 2426.35 1759.1 2431.57 1759.85 2435.5H1762.91C1762.14 2431.68 1761.45 2426.43 1761.03 2419.15C1759.91 2399.89 1763.46 2383.78 1765.33 2378.25C1765.6 2377.46 1765.18 2376.61 1764.39 2376.34C1763.61 2376.08 1762.76 2376.5 1762.49 2377.29Z" fill="white"></path>
<path d="M1789.89 2377.29C1787.9 2383.18 1784.29 2399.66 1785.43 2419.33C1785.84 2426.35 1786.5 2431.57 1787.26 2435.5H1790.31C1789.54 2431.68 1788.85 2426.43 1788.43 2419.15C1787.31 2399.89 1790.86 2383.78 1792.74 2378.25C1793 2377.46 1792.58 2376.61 1791.79 2376.34C1791.01 2376.08 1790.16 2376.5 1789.89 2377.29Z" fill="white"></path>
<path d="M2175.69 2314C2176.52 2314 2177.19 2314.67 2177.19 2315.5C2177.19 2316.33 2176.52 2317 2175.69 2317H2169.86C2169.37 2327.33 2163.22 2335.5 2155.69 2335.5C2148.16 2335.5 2142.01 2327.33 2141.52 2317H2135.69C2134.86 2317 2134.19 2316.33 2134.19 2315.5C2134.19 2314.67 2134.86 2314 2135.69 2314H2175.69Z" fill="white"></path>
<path d="M2345.32 2352.36C2346.08 2352.69 2346.97 2352.35 2347.3 2351.59C2354.85 2334.25 2354.18 2320.72 2352.28 2314L2348.86 2313.23C2350.8 2318.11 2352.66 2331.77 2344.55 2350.39C2344.22 2351.15 2344.56 2352.03 2345.32 2352.36Z" fill="white"></path>
<path d="M2367.15 2357.01C2367.91 2357.34 2368.79 2356.99 2369.12 2356.23C2376.67 2338.9 2376.01 2325.32 2374.1 2318.6L2370.69 2317.92C2372.63 2322.8 2374.48 2336.42 2366.37 2355.03C2366.04 2355.79 2366.39 2356.68 2367.15 2357.01Z" fill="white"></path>
<path d="M2387.03 2360.68C2387.79 2361.01 2388.67 2360.66 2389 2359.9C2396.55 2342.57 2395.89 2329.04 2393.98 2322.32L2390.59 2321.71C2392.53 2326.59 2394.36 2340.09 2386.25 2358.71C2385.92 2359.47 2386.27 2360.35 2387.03 2360.68Z" fill="white"></path>
<path d="M2481.93 2220.63C2468.28 2215.3 2457.41 2215.06 2450.61 2216.14C2450.68 2215.11 2450.77 2214.09 2450.89 2213.07C2451.25 2209.85 2451.86 2206.67 2452.7 2203.55C2452.98 2202.52 2453.29 2201.49 2453.62 2200.47C2460.91 2199.94 2470.92 2200.91 2482.79 2205.55C2483.56 2205.85 2483.94 2206.72 2483.64 2207.49C2483.34 2208.26 2482.47 2208.64 2481.7 2208.34C2469.51 2203.58 2459.54 2202.88 2452.7 2203.55C2451.86 2206.67 2451.25 2209.85 2450.89 2213.07C2458.32 2212.03 2469.45 2212.53 2483.02 2217.84C2483.79 2218.14 2484.18 2219.01 2483.88 2219.78C2483.57 2220.55 2482.7 2220.93 2481.93 2220.63Z" fill="white"></path>
<path d="M2467.66 2348.94C2469.33 2344.47 2469.9 2338.13 2470.02 2333.83C2471.91 2333.84 2475.38 2332.68 2474.15 2327.95C2478.21 2327.86 2485.48 2329.13 2491.41 2331.22C2492.19 2331.5 2492.6 2332.36 2492.32 2333.14C2492.05 2333.92 2491.19 2334.33 2490.41 2334.05C2484.94 2332.12 2478.38 2330.97 2474.69 2330.95C2476.14 2332.05 2477.79 2333.49 2479.44 2335.03C2482.12 2337.54 2484.9 2340.46 2486.96 2343C2487.48 2343.64 2487.38 2344.59 2486.74 2345.11C2486.09 2345.63 2485.15 2345.53 2484.63 2344.89C2482.68 2342.48 2479.99 2339.66 2477.39 2337.22C2475.8 2335.73 2474.3 2334.43 2473.03 2333.45C2472.94 2337.93 2472.36 2344.93 2470.47 2349.99C2470.18 2350.77 2469.32 2351.16 2468.54 2350.87C2467.77 2350.58 2467.37 2349.72 2467.66 2348.94Z" fill="white"></path>
<path d="M1613.88 2435.5H1605.8C1619.5 2431.15 1631.89 2419.74 1641.57 2403.13C1654.09 2381.63 1661.88 2351.68 1661.88 2318.09C1661.88 2284.49 1654.07 2254.16 1641.54 2232.27C1628.97 2210.34 1611.85 2197.18 1593.26 2197.18C1579.95 2197.18 1567.62 2204.48 1557.13 2217.04C1547.04 2229.13 1538.77 2245.98 1533.15 2265.41C1532.65 2263.49 1532.17 2261.55 1531.73 2259.58C1537.37 2241.94 1545.24 2226.52 1554.78 2215.08C1565.62 2202.1 1578.74 2194.12 1593.26 2194.12C1613.42 2194.12 1631.37 2208.36 1644.19 2230.75C1657.04 2253.18 1664.94 2284.06 1664.94 2318.09C1664.94 2352.11 1657.05 2382.62 1644.21 2404.67C1635.96 2418.83 1625.59 2429.61 1613.88 2435.5Z" fill="white"></path>
<path d="M1639.32 2123.45C1628.16 2107.21 1614.15 2097.18 1598.99 2095.5H1611.49C1622.97 2100.11 1633.33 2109.25 1641.87 2121.69C1654.49 2140.05 1663.31 2165.74 1666.15 2195.25L1663.07 2195.55C1660.26 2166.44 1651.58 2141.28 1639.32 2123.45Z" fill="white"></path>

</svg>